<mxfile host="app.diagrams.net" modified="2024-03-06T17:58:51.352Z" agent="Mozilla/5.0 (Windows NT 10.0; Win64; x64; rv:123.0) Gecko/20100101 Firefox/123.0" etag="oLC1hSKUhwNZTwGHwjcK" version="24.0.1" type="device">
  <diagram id="C5RBs43oDa-KdzZeNtuy" name="Page-1">
    <mxGraphModel dx="6578" dy="3300" grid="1" gridSize="10" guides="1" tooltips="1" connect="1" arrows="1" fold="1" page="1" pageScale="1" pageWidth="827" pageHeight="1169" math="0" shadow="0">
      <root>
        <mxCell id="WIyWlLk6GJQsqaUBKTNV-0" />
        <mxCell id="WIyWlLk6GJQsqaUBKTNV-1" parent="WIyWlLk6GJQsqaUBKTNV-0" />
        <mxCell id="Oz8bWutERCQ0BrFYmVm1-343" value="" style="group" vertex="1" connectable="0" parent="WIyWlLk6GJQsqaUBKTNV-1">
          <mxGeometry x="820" y="1730" width="1360" height="1120" as="geometry" />
        </mxCell>
        <mxCell id="Oz8bWutERCQ0BrFYmVm1-339" value="&lt;font style=&quot;font-size: 90px;&quot;&gt;Reactions settings&lt;/font&gt;" style="text;html=1;align=center;verticalAlign=middle;resizable=0;points=[];autosize=1;strokeColor=none;fillColor=none;" vertex="1" parent="Oz8bWutERCQ0BrFYmVm1-343">
          <mxGeometry x="340.5" y="1000" width="760" height="120" as="geometry" />
        </mxCell>
        <mxCell id="Oz8bWutERCQ0BrFYmVm1-342" value="" style="group" vertex="1" connectable="0" parent="Oz8bWutERCQ0BrFYmVm1-343">
          <mxGeometry width="1360" height="980" as="geometry" />
        </mxCell>
        <mxCell id="Oz8bWutERCQ0BrFYmVm1-338" value="" style="rounded=1;whiteSpace=wrap;html=1;" vertex="1" parent="Oz8bWutERCQ0BrFYmVm1-342">
          <mxGeometry width="1360" height="980" as="geometry" />
        </mxCell>
        <mxCell id="Oz8bWutERCQ0BrFYmVm1-303" value="Add Reaction" style="rhombus;whiteSpace=wrap;html=1;" vertex="1" parent="Oz8bWutERCQ0BrFYmVm1-342">
          <mxGeometry x="287" y="804.3800000000001" width="101.25" height="101.25" as="geometry" />
        </mxCell>
        <mxCell id="Oz8bWutERCQ0BrFYmVm1-305" value="Give name for Reaction" style="rounded=0;whiteSpace=wrap;html=1;" vertex="1" parent="Oz8bWutERCQ0BrFYmVm1-342">
          <mxGeometry x="558" y="825" width="120" height="60" as="geometry" />
        </mxCell>
        <mxCell id="Oz8bWutERCQ0BrFYmVm1-301" value="" style="edgeStyle=orthogonalEdgeStyle;rounded=0;orthogonalLoop=1;jettySize=auto;html=1;" edge="1" parent="Oz8bWutERCQ0BrFYmVm1-342" source="Oz8bWutERCQ0BrFYmVm1-303" target="Oz8bWutERCQ0BrFYmVm1-305">
          <mxGeometry relative="1" as="geometry" />
        </mxCell>
        <mxCell id="Oz8bWutERCQ0BrFYmVm1-307" value="Upload Image for Reaction" style="shape=parallelogram;perimeter=parallelogramPerimeter;whiteSpace=wrap;html=1;fixedSize=1;" vertex="1" parent="Oz8bWutERCQ0BrFYmVm1-342">
          <mxGeometry x="757" y="825" width="140" height="60" as="geometry" />
        </mxCell>
        <mxCell id="Oz8bWutERCQ0BrFYmVm1-304" value="" style="edgeStyle=orthogonalEdgeStyle;rounded=0;orthogonalLoop=1;jettySize=auto;html=1;" edge="1" parent="Oz8bWutERCQ0BrFYmVm1-342" source="Oz8bWutERCQ0BrFYmVm1-305" target="Oz8bWutERCQ0BrFYmVm1-307">
          <mxGeometry relative="1" as="geometry" />
        </mxCell>
        <mxCell id="Oz8bWutERCQ0BrFYmVm1-308" style="edgeStyle=orthogonalEdgeStyle;rounded=0;orthogonalLoop=1;jettySize=auto;html=1;" edge="1" parent="Oz8bWutERCQ0BrFYmVm1-342" source="Oz8bWutERCQ0BrFYmVm1-310">
          <mxGeometry relative="1" as="geometry">
            <mxPoint x="497" y="855.0050000000001" as="targetPoint" />
            <Array as="points">
              <mxPoint x="1030" y="760" />
              <mxPoint x="497" y="760" />
            </Array>
          </mxGeometry>
        </mxCell>
        <mxCell id="Oz8bWutERCQ0BrFYmVm1-309" style="edgeStyle=orthogonalEdgeStyle;rounded=0;orthogonalLoop=1;jettySize=auto;html=1;entryX=0.5;entryY=1;entryDx=0;entryDy=0;" edge="1" parent="Oz8bWutERCQ0BrFYmVm1-342" source="Oz8bWutERCQ0BrFYmVm1-310" target="Oz8bWutERCQ0BrFYmVm1-303">
          <mxGeometry relative="1" as="geometry">
            <Array as="points">
              <mxPoint x="1030" y="926" />
              <mxPoint x="338" y="926" />
            </Array>
          </mxGeometry>
        </mxCell>
        <mxCell id="Oz8bWutERCQ0BrFYmVm1-310" value="Add more Reactions" style="rhombus;whiteSpace=wrap;html=1;" vertex="1" parent="Oz8bWutERCQ0BrFYmVm1-342">
          <mxGeometry x="982" y="807.5100000000002" width="94.99" height="94.99" as="geometry" />
        </mxCell>
        <mxCell id="Oz8bWutERCQ0BrFYmVm1-306" value="" style="edgeStyle=orthogonalEdgeStyle;rounded=0;orthogonalLoop=1;jettySize=auto;html=1;" edge="1" parent="Oz8bWutERCQ0BrFYmVm1-342" source="Oz8bWutERCQ0BrFYmVm1-307" target="Oz8bWutERCQ0BrFYmVm1-310">
          <mxGeometry relative="1" as="geometry" />
        </mxCell>
        <mxCell id="Oz8bWutERCQ0BrFYmVm1-314" value="Search for Reaction" style="rhombus;whiteSpace=wrap;html=1;" vertex="1" parent="Oz8bWutERCQ0BrFYmVm1-342">
          <mxGeometry x="288.8800000000001" y="630" width="99.37" height="80" as="geometry" />
        </mxCell>
        <mxCell id="Oz8bWutERCQ0BrFYmVm1-302" value="" style="edgeStyle=orthogonalEdgeStyle;rounded=0;orthogonalLoop=1;jettySize=auto;html=1;entryX=0.5;entryY=1;entryDx=0;entryDy=0;entryPerimeter=0;" edge="1" parent="Oz8bWutERCQ0BrFYmVm1-342" source="Oz8bWutERCQ0BrFYmVm1-303" target="Oz8bWutERCQ0BrFYmVm1-314">
          <mxGeometry relative="1" as="geometry">
            <mxPoint x="337.58620689655186" y="703.7550000000001" as="targetPoint" />
          </mxGeometry>
        </mxCell>
        <mxCell id="Oz8bWutERCQ0BrFYmVm1-316" value="Use search or filters " style="rounded=0;whiteSpace=wrap;html=1;" vertex="1" parent="Oz8bWutERCQ0BrFYmVm1-342">
          <mxGeometry x="447" y="640" width="120" height="60" as="geometry" />
        </mxCell>
        <mxCell id="Oz8bWutERCQ0BrFYmVm1-312" value="" style="edgeStyle=orthogonalEdgeStyle;rounded=0;orthogonalLoop=1;jettySize=auto;html=1;" edge="1" parent="Oz8bWutERCQ0BrFYmVm1-342" source="Oz8bWutERCQ0BrFYmVm1-314" target="Oz8bWutERCQ0BrFYmVm1-316">
          <mxGeometry relative="1" as="geometry" />
        </mxCell>
        <mxCell id="Oz8bWutERCQ0BrFYmVm1-318" value="Select reaction from list" style="whiteSpace=wrap;html=1;" vertex="1" parent="Oz8bWutERCQ0BrFYmVm1-342">
          <mxGeometry x="278.56500000000005" y="440" width="120" height="60" as="geometry" />
        </mxCell>
        <mxCell id="Oz8bWutERCQ0BrFYmVm1-313" value="" style="edgeStyle=orthogonalEdgeStyle;rounded=0;orthogonalLoop=1;jettySize=auto;html=1;" edge="1" parent="Oz8bWutERCQ0BrFYmVm1-342" source="Oz8bWutERCQ0BrFYmVm1-314" target="Oz8bWutERCQ0BrFYmVm1-318">
          <mxGeometry relative="1" as="geometry" />
        </mxCell>
        <mxCell id="Oz8bWutERCQ0BrFYmVm1-315" style="edgeStyle=orthogonalEdgeStyle;rounded=0;orthogonalLoop=1;jettySize=auto;html=1;entryX=1;entryY=0.5;entryDx=0;entryDy=0;" edge="1" parent="Oz8bWutERCQ0BrFYmVm1-342" source="Oz8bWutERCQ0BrFYmVm1-316" target="Oz8bWutERCQ0BrFYmVm1-318">
          <mxGeometry relative="1" as="geometry">
            <Array as="points">
              <mxPoint x="507" y="470" />
            </Array>
          </mxGeometry>
        </mxCell>
        <mxCell id="Oz8bWutERCQ0BrFYmVm1-321" value="Update image or name" style="rhombus;whiteSpace=wrap;html=1;" vertex="1" parent="Oz8bWutERCQ0BrFYmVm1-342">
          <mxGeometry x="274.3499999999999" y="280" width="128.43" height="110" as="geometry" />
        </mxCell>
        <mxCell id="Oz8bWutERCQ0BrFYmVm1-317" value="" style="edgeStyle=orthogonalEdgeStyle;rounded=0;orthogonalLoop=1;jettySize=auto;html=1;" edge="1" parent="Oz8bWutERCQ0BrFYmVm1-342" source="Oz8bWutERCQ0BrFYmVm1-318" target="Oz8bWutERCQ0BrFYmVm1-321">
          <mxGeometry relative="1" as="geometry" />
        </mxCell>
        <mxCell id="Oz8bWutERCQ0BrFYmVm1-323" value="Update name" style="shape=parallelogram;perimeter=parallelogramPerimeter;whiteSpace=wrap;html=1;fixedSize=1;" vertex="1" parent="Oz8bWutERCQ0BrFYmVm1-342">
          <mxGeometry x="506.9949999999999" y="305" width="120" height="60" as="geometry" />
        </mxCell>
        <mxCell id="Oz8bWutERCQ0BrFYmVm1-319" value="" style="edgeStyle=orthogonalEdgeStyle;rounded=0;orthogonalLoop=1;jettySize=auto;html=1;" edge="1" parent="Oz8bWutERCQ0BrFYmVm1-342" source="Oz8bWutERCQ0BrFYmVm1-321" target="Oz8bWutERCQ0BrFYmVm1-323">
          <mxGeometry relative="1" as="geometry" />
        </mxCell>
        <mxCell id="Oz8bWutERCQ0BrFYmVm1-325" value="Upload new Image" style="shape=parallelogram;perimeter=parallelogramPerimeter;whiteSpace=wrap;html=1;fixedSize=1;" vertex="1" parent="Oz8bWutERCQ0BrFYmVm1-342">
          <mxGeometry x="264.3499999999999" y="120" width="148.43" height="60" as="geometry" />
        </mxCell>
        <mxCell id="Oz8bWutERCQ0BrFYmVm1-320" value="" style="edgeStyle=orthogonalEdgeStyle;rounded=0;orthogonalLoop=1;jettySize=auto;html=1;" edge="1" parent="Oz8bWutERCQ0BrFYmVm1-342" source="Oz8bWutERCQ0BrFYmVm1-321" target="Oz8bWutERCQ0BrFYmVm1-325">
          <mxGeometry relative="1" as="geometry" />
        </mxCell>
        <mxCell id="Oz8bWutERCQ0BrFYmVm1-326" style="edgeStyle=orthogonalEdgeStyle;rounded=0;orthogonalLoop=1;jettySize=auto;html=1;" edge="1" parent="Oz8bWutERCQ0BrFYmVm1-342" source="Oz8bWutERCQ0BrFYmVm1-329">
          <mxGeometry relative="1" as="geometry">
            <mxPoint x="337" y="780" as="targetPoint" />
            <Array as="points">
              <mxPoint x="567" y="80" />
              <mxPoint x="247" y="80" />
              <mxPoint x="247" y="780" />
            </Array>
          </mxGeometry>
        </mxCell>
        <mxCell id="Oz8bWutERCQ0BrFYmVm1-327" style="edgeStyle=orthogonalEdgeStyle;rounded=0;orthogonalLoop=1;jettySize=auto;html=1;entryX=0;entryY=0.5;entryDx=0;entryDy=0;" edge="1" parent="Oz8bWutERCQ0BrFYmVm1-342" source="Oz8bWutERCQ0BrFYmVm1-329" target="Oz8bWutERCQ0BrFYmVm1-303">
          <mxGeometry relative="1" as="geometry">
            <mxPoint x="237" y="860" as="targetPoint" />
            <Array as="points">
              <mxPoint x="667" y="150" />
              <mxPoint x="667" y="30" />
              <mxPoint x="217" y="30" />
              <mxPoint x="217" y="800" />
              <mxPoint x="237" y="800" />
              <mxPoint x="237" y="855" />
            </Array>
          </mxGeometry>
        </mxCell>
        <mxCell id="Oz8bWutERCQ0BrFYmVm1-329" value="Change more Reactions" style="rhombus;whiteSpace=wrap;html=1;" vertex="1" parent="Oz8bWutERCQ0BrFYmVm1-342">
          <mxGeometry x="511.99" y="100" width="110.01" height="100" as="geometry" />
        </mxCell>
        <mxCell id="Oz8bWutERCQ0BrFYmVm1-324" value="" style="edgeStyle=orthogonalEdgeStyle;rounded=0;orthogonalLoop=1;jettySize=auto;html=1;" edge="1" parent="Oz8bWutERCQ0BrFYmVm1-342" source="Oz8bWutERCQ0BrFYmVm1-325" target="Oz8bWutERCQ0BrFYmVm1-329">
          <mxGeometry relative="1" as="geometry" />
        </mxCell>
        <mxCell id="Oz8bWutERCQ0BrFYmVm1-331" value="Change Reaction" style="text;html=1;align=center;verticalAlign=middle;resizable=0;points=[];autosize=1;strokeColor=none;fillColor=none;" vertex="1" parent="Oz8bWutERCQ0BrFYmVm1-342">
          <mxGeometry x="427" y="48" width="120" height="30" as="geometry" />
        </mxCell>
        <mxCell id="Oz8bWutERCQ0BrFYmVm1-332" value="Reactions settings" style="text;html=1;align=center;verticalAlign=middle;resizable=0;points=[];autosize=1;strokeColor=none;fillColor=none;" vertex="1" parent="Oz8bWutERCQ0BrFYmVm1-342">
          <mxGeometry x="667" y="110" width="130" height="30" as="geometry" />
        </mxCell>
        <mxCell id="Oz8bWutERCQ0BrFYmVm1-333" value="Back to Admin settings" style="rounded=1;whiteSpace=wrap;html=1;" vertex="1" parent="Oz8bWutERCQ0BrFYmVm1-342">
          <mxGeometry x="1160" y="825" width="120" height="60" as="geometry" />
        </mxCell>
        <mxCell id="Oz8bWutERCQ0BrFYmVm1-334" style="edgeStyle=orthogonalEdgeStyle;rounded=0;orthogonalLoop=1;jettySize=auto;html=1;entryX=0;entryY=0.5;entryDx=0;entryDy=0;" edge="1" parent="Oz8bWutERCQ0BrFYmVm1-342" source="Oz8bWutERCQ0BrFYmVm1-310" target="Oz8bWutERCQ0BrFYmVm1-333">
          <mxGeometry relative="1" as="geometry" />
        </mxCell>
        <mxCell id="Oz8bWutERCQ0BrFYmVm1-335" value="Back to Admin settings" style="rounded=1;whiteSpace=wrap;html=1;" vertex="1" parent="Oz8bWutERCQ0BrFYmVm1-342">
          <mxGeometry x="685" y="220" width="120" height="60" as="geometry" />
        </mxCell>
        <mxCell id="Oz8bWutERCQ0BrFYmVm1-336" style="edgeStyle=orthogonalEdgeStyle;rounded=0;orthogonalLoop=1;jettySize=auto;html=1;entryX=0;entryY=0.5;entryDx=0;entryDy=0;" edge="1" parent="Oz8bWutERCQ0BrFYmVm1-342" source="Oz8bWutERCQ0BrFYmVm1-329" target="Oz8bWutERCQ0BrFYmVm1-335">
          <mxGeometry relative="1" as="geometry">
            <Array as="points">
              <mxPoint x="567" y="250" />
            </Array>
          </mxGeometry>
        </mxCell>
        <mxCell id="Oz8bWutERCQ0BrFYmVm1-337" value="&lt;div&gt;Reaction Settings&lt;/div&gt;" style="rounded=1;whiteSpace=wrap;html=1;" vertex="1" parent="Oz8bWutERCQ0BrFYmVm1-342">
          <mxGeometry x="50" y="825" width="120" height="60" as="geometry" />
        </mxCell>
        <mxCell id="Oz8bWutERCQ0BrFYmVm1-300" value="" style="edgeStyle=orthogonalEdgeStyle;rounded=0;orthogonalLoop=1;jettySize=auto;html=1;exitX=1;exitY=0.5;exitDx=0;exitDy=0;" edge="1" parent="Oz8bWutERCQ0BrFYmVm1-342" target="Oz8bWutERCQ0BrFYmVm1-303" source="Oz8bWutERCQ0BrFYmVm1-337">
          <mxGeometry relative="1" as="geometry">
            <mxPoint x="210" y="855" as="sourcePoint" />
          </mxGeometry>
        </mxCell>
        <mxCell id="Oz8bWutERCQ0BrFYmVm1-344" value="" style="group" vertex="1" connectable="0" parent="WIyWlLk6GJQsqaUBKTNV-1">
          <mxGeometry x="-130" y="1730" width="830" height="823" as="geometry" />
        </mxCell>
        <mxCell id="Oz8bWutERCQ0BrFYmVm1-295" value="" style="rounded=1;whiteSpace=wrap;html=1;" vertex="1" parent="Oz8bWutERCQ0BrFYmVm1-344">
          <mxGeometry x="66" width="660" height="680" as="geometry" />
        </mxCell>
        <mxCell id="Oz8bWutERCQ0BrFYmVm1-275" value="Search for User" style="rhombus;whiteSpace=wrap;html=1;" vertex="1" parent="Oz8bWutERCQ0BrFYmVm1-344">
          <mxGeometry x="390.93000000000006" y="59.909999999999854" width="110" height="80" as="geometry" />
        </mxCell>
        <mxCell id="Oz8bWutERCQ0BrFYmVm1-277" value="Select User" style="whiteSpace=wrap;html=1;" vertex="1" parent="Oz8bWutERCQ0BrFYmVm1-344">
          <mxGeometry x="290.93000000000006" y="224.90999999999985" width="120" height="60" as="geometry" />
        </mxCell>
        <mxCell id="Oz8bWutERCQ0BrFYmVm1-273" value="" style="edgeStyle=orthogonalEdgeStyle;rounded=0;orthogonalLoop=1;jettySize=auto;html=1;" edge="1" parent="Oz8bWutERCQ0BrFYmVm1-344" source="Oz8bWutERCQ0BrFYmVm1-275" target="Oz8bWutERCQ0BrFYmVm1-277">
          <mxGeometry relative="1" as="geometry" />
        </mxCell>
        <mxCell id="Oz8bWutERCQ0BrFYmVm1-278" style="edgeStyle=orthogonalEdgeStyle;rounded=0;orthogonalLoop=1;jettySize=auto;html=1;endArrow=none;endFill=0;" edge="1" parent="Oz8bWutERCQ0BrFYmVm1-344" source="Oz8bWutERCQ0BrFYmVm1-279">
          <mxGeometry relative="1" as="geometry">
            <mxPoint x="350.93000000000006" y="184.90999999999985" as="targetPoint" />
            <Array as="points">
              <mxPoint x="255.93000000000006" y="154.90999999999985" />
              <mxPoint x="350.93000000000006" y="154.90999999999985" />
            </Array>
          </mxGeometry>
        </mxCell>
        <mxCell id="Oz8bWutERCQ0BrFYmVm1-279" value="Use search or filter" style="whiteSpace=wrap;html=1;" vertex="1" parent="Oz8bWutERCQ0BrFYmVm1-344">
          <mxGeometry x="195.93000000000006" y="69.90999999999985" width="120" height="60" as="geometry" />
        </mxCell>
        <mxCell id="Oz8bWutERCQ0BrFYmVm1-274" value="" style="edgeStyle=orthogonalEdgeStyle;rounded=0;orthogonalLoop=1;jettySize=auto;html=1;" edge="1" parent="Oz8bWutERCQ0BrFYmVm1-344" source="Oz8bWutERCQ0BrFYmVm1-275" target="Oz8bWutERCQ0BrFYmVm1-279">
          <mxGeometry relative="1" as="geometry" />
        </mxCell>
        <mxCell id="Oz8bWutERCQ0BrFYmVm1-282" value="&lt;div&gt;Ban or give admin &lt;br&gt;&lt;/div&gt;&lt;div&gt;&amp;nbsp;user&lt;/div&gt;" style="rhombus;whiteSpace=wrap;html=1;" vertex="1" parent="Oz8bWutERCQ0BrFYmVm1-344">
          <mxGeometry x="300.93000000000006" y="324.90999999999985" width="100" height="110" as="geometry" />
        </mxCell>
        <mxCell id="Oz8bWutERCQ0BrFYmVm1-276" value="" style="edgeStyle=orthogonalEdgeStyle;rounded=0;orthogonalLoop=1;jettySize=auto;html=1;" edge="1" parent="Oz8bWutERCQ0BrFYmVm1-344" source="Oz8bWutERCQ0BrFYmVm1-277" target="Oz8bWutERCQ0BrFYmVm1-282">
          <mxGeometry relative="1" as="geometry" />
        </mxCell>
        <mxCell id="Oz8bWutERCQ0BrFYmVm1-284" value="Ban / give admin rights user" style="whiteSpace=wrap;html=1;" vertex="1" parent="Oz8bWutERCQ0BrFYmVm1-344">
          <mxGeometry x="130.93000000000006" y="349.90999999999985" width="120" height="60" as="geometry" />
        </mxCell>
        <mxCell id="Oz8bWutERCQ0BrFYmVm1-280" value="" style="edgeStyle=orthogonalEdgeStyle;rounded=0;orthogonalLoop=1;jettySize=auto;html=1;" edge="1" parent="Oz8bWutERCQ0BrFYmVm1-344" source="Oz8bWutERCQ0BrFYmVm1-282" target="Oz8bWutERCQ0BrFYmVm1-284">
          <mxGeometry relative="1" as="geometry" />
        </mxCell>
        <mxCell id="Oz8bWutERCQ0BrFYmVm1-286" value="Unban / Take admin rights user" style="whiteSpace=wrap;html=1;" vertex="1" parent="Oz8bWutERCQ0BrFYmVm1-344">
          <mxGeometry x="400.93000000000006" y="434.90999999999985" width="120" height="60" as="geometry" />
        </mxCell>
        <mxCell id="Oz8bWutERCQ0BrFYmVm1-281" value="" style="edgeStyle=orthogonalEdgeStyle;rounded=0;orthogonalLoop=1;jettySize=auto;html=1;entryX=0.5;entryY=0;entryDx=0;entryDy=0;exitX=1;exitY=0.5;exitDx=0;exitDy=0;" edge="1" parent="Oz8bWutERCQ0BrFYmVm1-344" source="Oz8bWutERCQ0BrFYmVm1-282" target="Oz8bWutERCQ0BrFYmVm1-286">
          <mxGeometry relative="1" as="geometry" />
        </mxCell>
        <mxCell id="Oz8bWutERCQ0BrFYmVm1-287" style="edgeStyle=orthogonalEdgeStyle;rounded=0;orthogonalLoop=1;jettySize=auto;html=1;entryX=0.5;entryY=0;entryDx=0;entryDy=0;" edge="1" parent="Oz8bWutERCQ0BrFYmVm1-344" source="Oz8bWutERCQ0BrFYmVm1-288" target="Oz8bWutERCQ0BrFYmVm1-275">
          <mxGeometry relative="1" as="geometry">
            <Array as="points">
              <mxPoint x="110.93000000000006" y="587.9099999999999" />
              <mxPoint x="110.93000000000006" y="39.909999999999854" />
              <mxPoint x="445.93000000000006" y="39.909999999999854" />
            </Array>
          </mxGeometry>
        </mxCell>
        <mxCell id="Oz8bWutERCQ0BrFYmVm1-288" value="Repeat" style="rhombus;whiteSpace=wrap;html=1;" vertex="1" parent="Oz8bWutERCQ0BrFYmVm1-344">
          <mxGeometry x="270.93000000000006" y="547.9099999999999" width="80" height="80" as="geometry" />
        </mxCell>
        <mxCell id="Oz8bWutERCQ0BrFYmVm1-283" style="edgeStyle=orthogonalEdgeStyle;rounded=0;orthogonalLoop=1;jettySize=auto;html=1;entryX=0.5;entryY=0;entryDx=0;entryDy=0;" edge="1" parent="Oz8bWutERCQ0BrFYmVm1-344" source="Oz8bWutERCQ0BrFYmVm1-284" target="Oz8bWutERCQ0BrFYmVm1-288">
          <mxGeometry relative="1" as="geometry">
            <Array as="points">
              <mxPoint x="190.93000000000006" y="464.90999999999985" />
              <mxPoint x="310.93000000000006" y="464.90999999999985" />
            </Array>
          </mxGeometry>
        </mxCell>
        <mxCell id="Oz8bWutERCQ0BrFYmVm1-285" value="" style="edgeStyle=orthogonalEdgeStyle;rounded=0;orthogonalLoop=1;jettySize=auto;html=1;" edge="1" parent="Oz8bWutERCQ0BrFYmVm1-344" source="Oz8bWutERCQ0BrFYmVm1-286" target="Oz8bWutERCQ0BrFYmVm1-288">
          <mxGeometry relative="1" as="geometry" />
        </mxCell>
        <mxCell id="Oz8bWutERCQ0BrFYmVm1-290" value="Repeat" style="text;html=1;align=center;verticalAlign=middle;resizable=0;points=[];autosize=1;strokeColor=none;fillColor=none;" vertex="1" parent="Oz8bWutERCQ0BrFYmVm1-344">
          <mxGeometry x="210.93000000000006" y="554.9099999999999" width="60" height="30" as="geometry" />
        </mxCell>
        <mxCell id="Oz8bWutERCQ0BrFYmVm1-292" value="" style="edgeStyle=orthogonalEdgeStyle;rounded=0;orthogonalLoop=1;jettySize=auto;html=1;" edge="1" parent="Oz8bWutERCQ0BrFYmVm1-344" source="Oz8bWutERCQ0BrFYmVm1-291" target="Oz8bWutERCQ0BrFYmVm1-275">
          <mxGeometry relative="1" as="geometry" />
        </mxCell>
        <mxCell id="Oz8bWutERCQ0BrFYmVm1-291" value="User Admin settings" style="rounded=1;whiteSpace=wrap;html=1;" vertex="1" parent="Oz8bWutERCQ0BrFYmVm1-344">
          <mxGeometry x="556" y="69.90999999999985" width="120" height="60" as="geometry" />
        </mxCell>
        <mxCell id="Oz8bWutERCQ0BrFYmVm1-293" value="Back to Admin settings" style="rounded=1;whiteSpace=wrap;html=1;" vertex="1" parent="Oz8bWutERCQ0BrFYmVm1-344">
          <mxGeometry x="556" y="557.9099999999999" width="120" height="60" as="geometry" />
        </mxCell>
        <mxCell id="Oz8bWutERCQ0BrFYmVm1-294" style="edgeStyle=orthogonalEdgeStyle;rounded=0;orthogonalLoop=1;jettySize=auto;html=1;entryX=0;entryY=0.5;entryDx=0;entryDy=0;" edge="1" parent="Oz8bWutERCQ0BrFYmVm1-344" source="Oz8bWutERCQ0BrFYmVm1-288" target="Oz8bWutERCQ0BrFYmVm1-293">
          <mxGeometry relative="1" as="geometry" />
        </mxCell>
        <mxCell id="Oz8bWutERCQ0BrFYmVm1-296" value="&lt;font style=&quot;font-size: 90px;&quot;&gt;User Admin settings&lt;/font&gt;" style="text;html=1;align=center;verticalAlign=middle;resizable=0;points=[];autosize=1;strokeColor=none;fillColor=none;" vertex="1" parent="Oz8bWutERCQ0BrFYmVm1-344">
          <mxGeometry y="703" width="830" height="120" as="geometry" />
        </mxCell>
        <mxCell id="Oz8bWutERCQ0BrFYmVm1-473" value="" style="group" vertex="1" connectable="0" parent="WIyWlLk6GJQsqaUBKTNV-1">
          <mxGeometry x="-1490" y="1730" width="1230" height="1523" as="geometry" />
        </mxCell>
        <mxCell id="Oz8bWutERCQ0BrFYmVm1-471" value="" style="group" vertex="1" connectable="0" parent="Oz8bWutERCQ0BrFYmVm1-473">
          <mxGeometry width="1230" height="1400" as="geometry" />
        </mxCell>
        <mxCell id="Oz8bWutERCQ0BrFYmVm1-470" value="" style="rounded=1;whiteSpace=wrap;html=1;" vertex="1" parent="Oz8bWutERCQ0BrFYmVm1-471">
          <mxGeometry width="1230" height="1400" as="geometry" />
        </mxCell>
        <mxCell id="Oz8bWutERCQ0BrFYmVm1-404" value="Change Profile" style="rhombus;whiteSpace=wrap;html=1;" vertex="1" parent="Oz8bWutERCQ0BrFYmVm1-471">
          <mxGeometry x="280" y="1026.25" width="120" height="120" as="geometry" />
        </mxCell>
        <mxCell id="Oz8bWutERCQ0BrFYmVm1-405" value="View Profile page" style="whiteSpace=wrap;html=1;" vertex="1" parent="Oz8bWutERCQ0BrFYmVm1-471">
          <mxGeometry x="480" y="1056.25" width="120" height="60" as="geometry" />
        </mxCell>
        <mxCell id="Oz8bWutERCQ0BrFYmVm1-403" value="" style="edgeStyle=orthogonalEdgeStyle;rounded=0;orthogonalLoop=1;jettySize=auto;html=1;" edge="1" parent="Oz8bWutERCQ0BrFYmVm1-471" source="Oz8bWutERCQ0BrFYmVm1-404" target="Oz8bWutERCQ0BrFYmVm1-405">
          <mxGeometry relative="1" as="geometry" />
        </mxCell>
        <mxCell id="Oz8bWutERCQ0BrFYmVm1-408" value="&lt;div&gt;Update&amp;nbsp;&lt;/div&gt;&lt;div&gt;Profile&lt;/div&gt;" style="rhombus;whiteSpace=wrap;html=1;" vertex="1" parent="Oz8bWutERCQ0BrFYmVm1-471">
          <mxGeometry x="300" y="831.25" width="80" height="80" as="geometry" />
        </mxCell>
        <mxCell id="Oz8bWutERCQ0BrFYmVm1-402" value="" style="edgeStyle=orthogonalEdgeStyle;rounded=0;orthogonalLoop=1;jettySize=auto;html=1;entryX=0.5;entryY=1;entryDx=0;entryDy=0;" edge="1" parent="Oz8bWutERCQ0BrFYmVm1-471" source="Oz8bWutERCQ0BrFYmVm1-404" target="Oz8bWutERCQ0BrFYmVm1-408">
          <mxGeometry relative="1" as="geometry">
            <mxPoint x="340" y="916.2499999999995" as="targetPoint" />
          </mxGeometry>
        </mxCell>
        <mxCell id="Oz8bWutERCQ0BrFYmVm1-409" value="&lt;div&gt;Update Profile&amp;nbsp;&lt;/div&gt;&lt;div&gt;photo&lt;/div&gt;" style="shape=parallelogram;perimeter=parallelogramPerimeter;whiteSpace=wrap;html=1;fixedSize=1;" vertex="1" parent="Oz8bWutERCQ0BrFYmVm1-471">
          <mxGeometry x="440" y="841.25" width="120" height="60" as="geometry" />
        </mxCell>
        <mxCell id="Oz8bWutERCQ0BrFYmVm1-406" value="" style="edgeStyle=orthogonalEdgeStyle;rounded=0;orthogonalLoop=1;jettySize=auto;html=1;" edge="1" parent="Oz8bWutERCQ0BrFYmVm1-471" source="Oz8bWutERCQ0BrFYmVm1-408" target="Oz8bWutERCQ0BrFYmVm1-409">
          <mxGeometry relative="1" as="geometry" />
        </mxCell>
        <mxCell id="Oz8bWutERCQ0BrFYmVm1-410" value="" style="edgeStyle=orthogonalEdgeStyle;rounded=0;orthogonalLoop=1;jettySize=auto;html=1;" edge="1" parent="Oz8bWutERCQ0BrFYmVm1-471" source="Oz8bWutERCQ0BrFYmVm1-412">
          <mxGeometry relative="1" as="geometry">
            <mxPoint x="489.9999999999998" y="708.75" as="targetPoint" />
          </mxGeometry>
        </mxCell>
        <mxCell id="Oz8bWutERCQ0BrFYmVm1-412" value="&lt;div&gt;Update&amp;nbsp;&lt;/div&gt;&lt;div&gt;Profile&lt;/div&gt;&amp;nbsp;Bio / Interest" style="rhombus;whiteSpace=wrap;html=1;" vertex="1" parent="Oz8bWutERCQ0BrFYmVm1-471">
          <mxGeometry x="275" y="656.25" width="130" height="105" as="geometry" />
        </mxCell>
        <mxCell id="Oz8bWutERCQ0BrFYmVm1-407" value="" style="edgeStyle=orthogonalEdgeStyle;rounded=0;orthogonalLoop=1;jettySize=auto;html=1;" edge="1" parent="Oz8bWutERCQ0BrFYmVm1-471" source="Oz8bWutERCQ0BrFYmVm1-408" target="Oz8bWutERCQ0BrFYmVm1-412">
          <mxGeometry relative="1" as="geometry" />
        </mxCell>
        <mxCell id="Oz8bWutERCQ0BrFYmVm1-415" value="&lt;div&gt;Update &lt;br&gt;&lt;/div&gt;&lt;div&gt;Interest&lt;br&gt;&lt;/div&gt;" style="rhombus;whiteSpace=wrap;html=1;" vertex="1" parent="Oz8bWutERCQ0BrFYmVm1-471">
          <mxGeometry x="490" y="668.75" width="80" height="80" as="geometry" />
        </mxCell>
        <mxCell id="Oz8bWutERCQ0BrFYmVm1-417" value="Select type of new Interest" style="whiteSpace=wrap;html=1;" vertex="1" parent="Oz8bWutERCQ0BrFYmVm1-471">
          <mxGeometry x="630" y="678.75" width="120" height="60" as="geometry" />
        </mxCell>
        <mxCell id="Oz8bWutERCQ0BrFYmVm1-413" value="" style="edgeStyle=orthogonalEdgeStyle;rounded=0;orthogonalLoop=1;jettySize=auto;html=1;" edge="1" parent="Oz8bWutERCQ0BrFYmVm1-471" source="Oz8bWutERCQ0BrFYmVm1-415" target="Oz8bWutERCQ0BrFYmVm1-417">
          <mxGeometry relative="1" as="geometry" />
        </mxCell>
        <mxCell id="Oz8bWutERCQ0BrFYmVm1-420" value="&lt;div&gt;Search&lt;/div&gt;&lt;div&gt;Interest&lt;br&gt;&lt;/div&gt;" style="rhombus;whiteSpace=wrap;html=1;" vertex="1" parent="Oz8bWutERCQ0BrFYmVm1-471">
          <mxGeometry x="490" y="508.75" width="80" height="80" as="geometry" />
        </mxCell>
        <mxCell id="Oz8bWutERCQ0BrFYmVm1-414" value="" style="edgeStyle=orthogonalEdgeStyle;rounded=0;orthogonalLoop=1;jettySize=auto;html=1;" edge="1" parent="Oz8bWutERCQ0BrFYmVm1-471" source="Oz8bWutERCQ0BrFYmVm1-415" target="Oz8bWutERCQ0BrFYmVm1-420">
          <mxGeometry relative="1" as="geometry" />
        </mxCell>
        <mxCell id="Oz8bWutERCQ0BrFYmVm1-421" style="edgeStyle=orthogonalEdgeStyle;rounded=0;orthogonalLoop=1;jettySize=auto;html=1;" edge="1" parent="Oz8bWutERCQ0BrFYmVm1-471" source="Oz8bWutERCQ0BrFYmVm1-422">
          <mxGeometry relative="1" as="geometry">
            <mxPoint x="529.9999999999998" y="456.25" as="targetPoint" />
            <Array as="points">
              <mxPoint x="690" y="456.25" />
            </Array>
          </mxGeometry>
        </mxCell>
        <mxCell id="Oz8bWutERCQ0BrFYmVm1-422" value="Use search or filters" style="whiteSpace=wrap;html=1;" vertex="1" parent="Oz8bWutERCQ0BrFYmVm1-471">
          <mxGeometry x="630" y="518.75" width="120" height="60" as="geometry" />
        </mxCell>
        <mxCell id="Oz8bWutERCQ0BrFYmVm1-418" value="" style="edgeStyle=orthogonalEdgeStyle;rounded=0;orthogonalLoop=1;jettySize=auto;html=1;" edge="1" parent="Oz8bWutERCQ0BrFYmVm1-471" source="Oz8bWutERCQ0BrFYmVm1-420" target="Oz8bWutERCQ0BrFYmVm1-422">
          <mxGeometry relative="1" as="geometry" />
        </mxCell>
        <mxCell id="Oz8bWutERCQ0BrFYmVm1-424" value="Select from the list" style="whiteSpace=wrap;html=1;" vertex="1" parent="Oz8bWutERCQ0BrFYmVm1-471">
          <mxGeometry x="470" y="358.75" width="120" height="60" as="geometry" />
        </mxCell>
        <mxCell id="Oz8bWutERCQ0BrFYmVm1-419" value="" style="edgeStyle=orthogonalEdgeStyle;rounded=0;orthogonalLoop=1;jettySize=auto;html=1;" edge="1" parent="Oz8bWutERCQ0BrFYmVm1-471" source="Oz8bWutERCQ0BrFYmVm1-420" target="Oz8bWutERCQ0BrFYmVm1-424">
          <mxGeometry relative="1" as="geometry" />
        </mxCell>
        <mxCell id="Oz8bWutERCQ0BrFYmVm1-427" value="&lt;div&gt;Update &lt;br&gt;&lt;/div&gt;&lt;div&gt;/&lt;/div&gt;&lt;div&gt;Delete&lt;br&gt;&lt;/div&gt;" style="rhombus;whiteSpace=wrap;html=1;" vertex="1" parent="Oz8bWutERCQ0BrFYmVm1-471">
          <mxGeometry x="490" y="196.25" width="80" height="92.5" as="geometry" />
        </mxCell>
        <mxCell id="Oz8bWutERCQ0BrFYmVm1-423" value="" style="edgeStyle=orthogonalEdgeStyle;rounded=0;orthogonalLoop=1;jettySize=auto;html=1;" edge="1" parent="Oz8bWutERCQ0BrFYmVm1-471" source="Oz8bWutERCQ0BrFYmVm1-424" target="Oz8bWutERCQ0BrFYmVm1-427">
          <mxGeometry relative="1" as="geometry" />
        </mxCell>
        <mxCell id="Oz8bWutERCQ0BrFYmVm1-429" value="Delete selected Interest" style="whiteSpace=wrap;html=1;" vertex="1" parent="Oz8bWutERCQ0BrFYmVm1-471">
          <mxGeometry x="630" y="212.5" width="120" height="60" as="geometry" />
        </mxCell>
        <mxCell id="Oz8bWutERCQ0BrFYmVm1-425" value="" style="edgeStyle=orthogonalEdgeStyle;rounded=0;orthogonalLoop=1;jettySize=auto;html=1;" edge="1" parent="Oz8bWutERCQ0BrFYmVm1-471" source="Oz8bWutERCQ0BrFYmVm1-427" target="Oz8bWutERCQ0BrFYmVm1-429">
          <mxGeometry relative="1" as="geometry" />
        </mxCell>
        <mxCell id="Oz8bWutERCQ0BrFYmVm1-431" value="Update values of Interest" style="whiteSpace=wrap;html=1;" vertex="1" parent="Oz8bWutERCQ0BrFYmVm1-471">
          <mxGeometry x="470" y="40" width="120" height="60" as="geometry" />
        </mxCell>
        <mxCell id="Oz8bWutERCQ0BrFYmVm1-426" value="" style="edgeStyle=orthogonalEdgeStyle;rounded=0;orthogonalLoop=1;jettySize=auto;html=1;" edge="1" parent="Oz8bWutERCQ0BrFYmVm1-471" source="Oz8bWutERCQ0BrFYmVm1-427" target="Oz8bWutERCQ0BrFYmVm1-431">
          <mxGeometry relative="1" as="geometry" />
        </mxCell>
        <mxCell id="Oz8bWutERCQ0BrFYmVm1-433" value="Input interest value" style="whiteSpace=wrap;html=1;" vertex="1" parent="Oz8bWutERCQ0BrFYmVm1-471">
          <mxGeometry x="830" y="678.75" width="120" height="60" as="geometry" />
        </mxCell>
        <mxCell id="Oz8bWutERCQ0BrFYmVm1-416" value="" style="edgeStyle=orthogonalEdgeStyle;rounded=0;orthogonalLoop=1;jettySize=auto;html=1;" edge="1" parent="Oz8bWutERCQ0BrFYmVm1-471" source="Oz8bWutERCQ0BrFYmVm1-417" target="Oz8bWutERCQ0BrFYmVm1-433">
          <mxGeometry relative="1" as="geometry" />
        </mxCell>
        <mxCell id="Oz8bWutERCQ0BrFYmVm1-435" value="Enter new bio" style="shape=parallelogram;perimeter=parallelogramPerimeter;whiteSpace=wrap;html=1;fixedSize=1;" vertex="1" parent="Oz8bWutERCQ0BrFYmVm1-471">
          <mxGeometry x="70" y="678.75" width="120" height="60" as="geometry" />
        </mxCell>
        <mxCell id="Oz8bWutERCQ0BrFYmVm1-411" value="" style="edgeStyle=orthogonalEdgeStyle;rounded=0;orthogonalLoop=1;jettySize=auto;html=1;" edge="1" parent="Oz8bWutERCQ0BrFYmVm1-471" source="Oz8bWutERCQ0BrFYmVm1-412" target="Oz8bWutERCQ0BrFYmVm1-435">
          <mxGeometry relative="1" as="geometry" />
        </mxCell>
        <mxCell id="Oz8bWutERCQ0BrFYmVm1-438" value="&lt;div&gt;Home page&lt;/div&gt;&lt;div&gt;or&lt;/div&gt;&lt;div&gt;Sidebar menus&lt;br&gt;&lt;/div&gt;" style="rhombus;whiteSpace=wrap;html=1;" vertex="1" parent="Oz8bWutERCQ0BrFYmVm1-471">
          <mxGeometry x="699.94" y="1021.2199999999998" width="130.06" height="130.06" as="geometry" />
        </mxCell>
        <mxCell id="Oz8bWutERCQ0BrFYmVm1-439" value="" style="edgeStyle=orthogonalEdgeStyle;rounded=0;orthogonalLoop=1;jettySize=auto;html=1;" edge="1" parent="Oz8bWutERCQ0BrFYmVm1-471" source="Oz8bWutERCQ0BrFYmVm1-405" target="Oz8bWutERCQ0BrFYmVm1-438">
          <mxGeometry relative="1" as="geometry" />
        </mxCell>
        <mxCell id="Oz8bWutERCQ0BrFYmVm1-440" value="Back to Home page" style="rounded=1;whiteSpace=wrap;html=1;" vertex="1" parent="Oz8bWutERCQ0BrFYmVm1-471">
          <mxGeometry x="870" y="1056.25" width="120" height="60" as="geometry" />
        </mxCell>
        <mxCell id="Oz8bWutERCQ0BrFYmVm1-441" value="" style="edgeStyle=orthogonalEdgeStyle;rounded=0;orthogonalLoop=1;jettySize=auto;html=1;" edge="1" parent="Oz8bWutERCQ0BrFYmVm1-471" source="Oz8bWutERCQ0BrFYmVm1-438" target="Oz8bWutERCQ0BrFYmVm1-440">
          <mxGeometry relative="1" as="geometry" />
        </mxCell>
        <mxCell id="Oz8bWutERCQ0BrFYmVm1-442" value="Sidebar menues" style="rounded=1;whiteSpace=wrap;html=1;" vertex="1" parent="Oz8bWutERCQ0BrFYmVm1-471">
          <mxGeometry x="704.97" y="1209.31" width="120" height="60" as="geometry" />
        </mxCell>
        <mxCell id="Oz8bWutERCQ0BrFYmVm1-443" value="" style="edgeStyle=orthogonalEdgeStyle;rounded=0;orthogonalLoop=1;jettySize=auto;html=1;" edge="1" parent="Oz8bWutERCQ0BrFYmVm1-471" source="Oz8bWutERCQ0BrFYmVm1-438" target="Oz8bWutERCQ0BrFYmVm1-442">
          <mxGeometry relative="1" as="geometry" />
        </mxCell>
        <mxCell id="Oz8bWutERCQ0BrFYmVm1-445" value="" style="edgeStyle=orthogonalEdgeStyle;rounded=0;orthogonalLoop=1;jettySize=auto;html=1;" edge="1" parent="Oz8bWutERCQ0BrFYmVm1-471" source="Oz8bWutERCQ0BrFYmVm1-444" target="Oz8bWutERCQ0BrFYmVm1-404">
          <mxGeometry relative="1" as="geometry" />
        </mxCell>
        <mxCell id="Oz8bWutERCQ0BrFYmVm1-444" value="Profile Page" style="rounded=1;whiteSpace=wrap;html=1;" vertex="1" parent="Oz8bWutERCQ0BrFYmVm1-471">
          <mxGeometry x="280" y="1250" width="120" height="60" as="geometry" />
        </mxCell>
        <mxCell id="Oz8bWutERCQ0BrFYmVm1-446" value="No" style="text;html=1;align=center;verticalAlign=middle;resizable=0;points=[];autosize=1;strokeColor=none;fillColor=none;" vertex="1" parent="Oz8bWutERCQ0BrFYmVm1-471">
          <mxGeometry x="400" y="1056.25" width="40" height="30" as="geometry" />
        </mxCell>
        <mxCell id="Oz8bWutERCQ0BrFYmVm1-447" value="Yes" style="text;html=1;align=center;verticalAlign=middle;resizable=0;points=[];autosize=1;strokeColor=none;fillColor=none;" vertex="1" parent="Oz8bWutERCQ0BrFYmVm1-471">
          <mxGeometry x="290" y="991.2199999999998" width="40" height="30" as="geometry" />
        </mxCell>
        <mxCell id="Oz8bWutERCQ0BrFYmVm1-460" style="edgeStyle=orthogonalEdgeStyle;rounded=0;orthogonalLoop=1;jettySize=auto;html=1;" edge="1" parent="Oz8bWutERCQ0BrFYmVm1-471" source="Oz8bWutERCQ0BrFYmVm1-449">
          <mxGeometry relative="1" as="geometry">
            <mxPoint x="459.99999999999955" y="710" as="targetPoint" />
            <Array as="points">
              <mxPoint x="1050" y="157" />
              <mxPoint x="1050" y="770" />
              <mxPoint x="460" y="770" />
            </Array>
          </mxGeometry>
        </mxCell>
        <mxCell id="Oz8bWutERCQ0BrFYmVm1-461" style="edgeStyle=orthogonalEdgeStyle;rounded=0;orthogonalLoop=1;jettySize=auto;html=1;exitX=0.5;exitY=0;exitDx=0;exitDy=0;" edge="1" parent="Oz8bWutERCQ0BrFYmVm1-471" source="Oz8bWutERCQ0BrFYmVm1-449">
          <mxGeometry relative="1" as="geometry">
            <mxPoint x="339.99999999999955" y="1180" as="targetPoint" />
            <Array as="points">
              <mxPoint x="1120" y="103" />
              <mxPoint x="1120" y="1290" />
              <mxPoint x="470" y="1290" />
              <mxPoint x="470" y="1180" />
            </Array>
          </mxGeometry>
        </mxCell>
        <mxCell id="Oz8bWutERCQ0BrFYmVm1-449" value="Continue to change account interest" style="rhombus;whiteSpace=wrap;html=1;" vertex="1" parent="Oz8bWutERCQ0BrFYmVm1-471">
          <mxGeometry x="860" y="102.5" width="140" height="110" as="geometry" />
        </mxCell>
        <mxCell id="Oz8bWutERCQ0BrFYmVm1-457" style="edgeStyle=orthogonalEdgeStyle;rounded=0;orthogonalLoop=1;jettySize=auto;html=1;entryX=0;entryY=0.5;entryDx=0;entryDy=0;" edge="1" parent="Oz8bWutERCQ0BrFYmVm1-471" source="Oz8bWutERCQ0BrFYmVm1-429" target="Oz8bWutERCQ0BrFYmVm1-449">
          <mxGeometry relative="1" as="geometry" />
        </mxCell>
        <mxCell id="Oz8bWutERCQ0BrFYmVm1-458" style="edgeStyle=orthogonalEdgeStyle;rounded=0;orthogonalLoop=1;jettySize=auto;html=1;entryX=0;entryY=0.5;entryDx=0;entryDy=0;" edge="1" parent="Oz8bWutERCQ0BrFYmVm1-471" source="Oz8bWutERCQ0BrFYmVm1-431" target="Oz8bWutERCQ0BrFYmVm1-449">
          <mxGeometry relative="1" as="geometry" />
        </mxCell>
        <mxCell id="Oz8bWutERCQ0BrFYmVm1-459" style="edgeStyle=orthogonalEdgeStyle;rounded=0;orthogonalLoop=1;jettySize=auto;html=1;entryX=0;entryY=0.5;entryDx=0;entryDy=0;" edge="1" parent="Oz8bWutERCQ0BrFYmVm1-471" source="Oz8bWutERCQ0BrFYmVm1-433" target="Oz8bWutERCQ0BrFYmVm1-449">
          <mxGeometry relative="1" as="geometry" />
        </mxCell>
        <mxCell id="Oz8bWutERCQ0BrFYmVm1-468" style="edgeStyle=orthogonalEdgeStyle;rounded=0;orthogonalLoop=1;jettySize=auto;html=1;" edge="1" parent="Oz8bWutERCQ0BrFYmVm1-471" source="Oz8bWutERCQ0BrFYmVm1-462">
          <mxGeometry relative="1" as="geometry">
            <mxPoint x="340" y="970" as="targetPoint" />
            <Array as="points">
              <mxPoint x="240" y="846" />
              <mxPoint x="240" y="970" />
            </Array>
          </mxGeometry>
        </mxCell>
        <mxCell id="Oz8bWutERCQ0BrFYmVm1-469" style="edgeStyle=orthogonalEdgeStyle;rounded=0;orthogonalLoop=1;jettySize=auto;html=1;" edge="1" parent="Oz8bWutERCQ0BrFYmVm1-471" source="Oz8bWutERCQ0BrFYmVm1-462">
          <mxGeometry relative="1" as="geometry">
            <mxPoint x="340" y="1180" as="targetPoint" />
            <Array as="points">
              <mxPoint x="130" y="1180" />
            </Array>
          </mxGeometry>
        </mxCell>
        <mxCell id="Oz8bWutERCQ0BrFYmVm1-462" value="&lt;div&gt;Continue to &lt;br&gt;&lt;/div&gt;&lt;div&gt;change profile&lt;br&gt;&lt;/div&gt;" style="rhombus;whiteSpace=wrap;html=1;" vertex="1" parent="Oz8bWutERCQ0BrFYmVm1-471">
          <mxGeometry x="65" y="791.25" width="130" height="110" as="geometry" />
        </mxCell>
        <mxCell id="Oz8bWutERCQ0BrFYmVm1-467" value="" style="edgeStyle=orthogonalEdgeStyle;rounded=0;orthogonalLoop=1;jettySize=auto;html=1;" edge="1" parent="Oz8bWutERCQ0BrFYmVm1-471" source="Oz8bWutERCQ0BrFYmVm1-435" target="Oz8bWutERCQ0BrFYmVm1-462">
          <mxGeometry relative="1" as="geometry" />
        </mxCell>
        <mxCell id="Oz8bWutERCQ0BrFYmVm1-465" style="edgeStyle=orthogonalEdgeStyle;rounded=0;orthogonalLoop=1;jettySize=auto;html=1;" edge="1" parent="Oz8bWutERCQ0BrFYmVm1-471" source="Oz8bWutERCQ0BrFYmVm1-463">
          <mxGeometry relative="1" as="geometry">
            <mxPoint x="339.99999999999955" y="1000" as="targetPoint" />
            <Array as="points">
              <mxPoint x="695" y="1000" />
            </Array>
          </mxGeometry>
        </mxCell>
        <mxCell id="Oz8bWutERCQ0BrFYmVm1-466" style="edgeStyle=orthogonalEdgeStyle;rounded=0;orthogonalLoop=1;jettySize=auto;html=1;" edge="1" parent="Oz8bWutERCQ0BrFYmVm1-471" source="Oz8bWutERCQ0BrFYmVm1-463">
          <mxGeometry relative="1" as="geometry">
            <mxPoint x="340" y="1180" as="targetPoint" />
            <Array as="points">
              <mxPoint x="1120" y="896" />
              <mxPoint x="1120" y="1290" />
              <mxPoint x="470" y="1290" />
              <mxPoint x="470" y="1180" />
            </Array>
          </mxGeometry>
        </mxCell>
        <mxCell id="Oz8bWutERCQ0BrFYmVm1-463" value="&lt;div&gt;Continue to &lt;br&gt;&lt;/div&gt;&lt;div&gt;change profile&lt;br&gt;&lt;/div&gt;" style="rhombus;whiteSpace=wrap;html=1;" vertex="1" parent="Oz8bWutERCQ0BrFYmVm1-471">
          <mxGeometry x="630" y="841.25" width="130" height="110" as="geometry" />
        </mxCell>
        <mxCell id="Oz8bWutERCQ0BrFYmVm1-464" value="" style="edgeStyle=orthogonalEdgeStyle;rounded=0;orthogonalLoop=1;jettySize=auto;html=1;" edge="1" parent="Oz8bWutERCQ0BrFYmVm1-471" source="Oz8bWutERCQ0BrFYmVm1-409" target="Oz8bWutERCQ0BrFYmVm1-463">
          <mxGeometry relative="1" as="geometry" />
        </mxCell>
        <mxCell id="Oz8bWutERCQ0BrFYmVm1-472" value="&lt;font style=&quot;font-size: 90px;&quot;&gt;Profile page&lt;br&gt;&lt;/font&gt;" style="text;html=1;align=center;verticalAlign=middle;resizable=0;points=[];autosize=1;strokeColor=none;fillColor=none;" vertex="1" parent="Oz8bWutERCQ0BrFYmVm1-473">
          <mxGeometry x="330" y="1403" width="500" height="120" as="geometry" />
        </mxCell>
        <mxCell id="Oz8bWutERCQ0BrFYmVm1-474" value="" style="group" vertex="1" connectable="0" parent="WIyWlLk6GJQsqaUBKTNV-1">
          <mxGeometry x="2390" y="1730" width="1450" height="810" as="geometry" />
        </mxCell>
        <mxCell id="Oz8bWutERCQ0BrFYmVm1-395" value="" style="group" vertex="1" connectable="0" parent="Oz8bWutERCQ0BrFYmVm1-474">
          <mxGeometry width="1450" height="660" as="geometry" />
        </mxCell>
        <mxCell id="Oz8bWutERCQ0BrFYmVm1-394" value="" style="rounded=1;whiteSpace=wrap;html=1;" vertex="1" parent="Oz8bWutERCQ0BrFYmVm1-395">
          <mxGeometry width="1450" height="660" as="geometry" />
        </mxCell>
        <mxCell id="Oz8bWutERCQ0BrFYmVm1-347" value="Enter name of new Interest" style="rounded=0;whiteSpace=wrap;html=1;" vertex="1" parent="Oz8bWutERCQ0BrFYmVm1-395">
          <mxGeometry x="100" y="212.5" width="120" height="60" as="geometry" />
        </mxCell>
        <mxCell id="Oz8bWutERCQ0BrFYmVm1-349" value="Select Interest input type" style="rounded=0;whiteSpace=wrap;html=1;" vertex="1" parent="Oz8bWutERCQ0BrFYmVm1-395">
          <mxGeometry x="100" y="312.5" width="120" height="60" as="geometry" />
        </mxCell>
        <mxCell id="Oz8bWutERCQ0BrFYmVm1-346" value="" style="edgeStyle=orthogonalEdgeStyle;rounded=0;orthogonalLoop=1;jettySize=auto;html=1;" edge="1" parent="Oz8bWutERCQ0BrFYmVm1-395" source="Oz8bWutERCQ0BrFYmVm1-347" target="Oz8bWutERCQ0BrFYmVm1-349">
          <mxGeometry relative="1" as="geometry" />
        </mxCell>
        <mxCell id="Oz8bWutERCQ0BrFYmVm1-350" value="" style="edgeStyle=orthogonalEdgeStyle;rounded=0;orthogonalLoop=1;jettySize=auto;html=1;entryX=0.5;entryY=0;entryDx=0;entryDy=0;" edge="1" parent="Oz8bWutERCQ0BrFYmVm1-395" source="Oz8bWutERCQ0BrFYmVm1-352" target="Oz8bWutERCQ0BrFYmVm1-347">
          <mxGeometry relative="1" as="geometry" />
        </mxCell>
        <mxCell id="Oz8bWutERCQ0BrFYmVm1-352" value="Add interest" style="rhombus;whiteSpace=wrap;html=1;" vertex="1" parent="Oz8bWutERCQ0BrFYmVm1-395">
          <mxGeometry x="266.25" y="132.5" width="80" height="80" as="geometry" />
        </mxCell>
        <mxCell id="Oz8bWutERCQ0BrFYmVm1-353" style="edgeStyle=orthogonalEdgeStyle;rounded=0;orthogonalLoop=1;jettySize=auto;html=1;" edge="1" parent="Oz8bWutERCQ0BrFYmVm1-395" source="Oz8bWutERCQ0BrFYmVm1-354">
          <mxGeometry relative="1" as="geometry">
            <mxPoint x="160" y="172.5" as="targetPoint" />
            <Array as="points">
              <mxPoint x="40" y="452.5" />
              <mxPoint x="40" y="172.5" />
            </Array>
          </mxGeometry>
        </mxCell>
        <mxCell id="Oz8bWutERCQ0BrFYmVm1-354" value="Add more interests" style="rhombus;whiteSpace=wrap;html=1;" vertex="1" parent="Oz8bWutERCQ0BrFYmVm1-395">
          <mxGeometry x="120" y="412.5" width="80" height="80" as="geometry" />
        </mxCell>
        <mxCell id="Oz8bWutERCQ0BrFYmVm1-348" value="" style="edgeStyle=orthogonalEdgeStyle;rounded=0;orthogonalLoop=1;jettySize=auto;html=1;" edge="1" parent="Oz8bWutERCQ0BrFYmVm1-395" source="Oz8bWutERCQ0BrFYmVm1-349" target="Oz8bWutERCQ0BrFYmVm1-354">
          <mxGeometry relative="1" as="geometry" />
        </mxCell>
        <mxCell id="Oz8bWutERCQ0BrFYmVm1-355" style="edgeStyle=orthogonalEdgeStyle;rounded=0;orthogonalLoop=1;jettySize=auto;html=1;entryX=0.5;entryY=1;entryDx=0;entryDy=0;" edge="1" parent="Oz8bWutERCQ0BrFYmVm1-395" source="Oz8bWutERCQ0BrFYmVm1-354" target="Oz8bWutERCQ0BrFYmVm1-352">
          <mxGeometry relative="1" as="geometry" />
        </mxCell>
        <mxCell id="Oz8bWutERCQ0BrFYmVm1-356" value="Add" style="text;html=1;align=center;verticalAlign=middle;resizable=0;points=[];autosize=1;strokeColor=none;fillColor=none;" vertex="1" parent="Oz8bWutERCQ0BrFYmVm1-395">
          <mxGeometry x="60" y="430.5" width="40" height="30" as="geometry" />
        </mxCell>
        <mxCell id="Oz8bWutERCQ0BrFYmVm1-357" value="&lt;div&gt;Back to Interest&lt;/div&gt;&lt;div&gt;settings&lt;br&gt;&lt;/div&gt;" style="text;html=1;align=center;verticalAlign=middle;resizable=0;points=[];autosize=1;strokeColor=none;fillColor=none;" vertex="1" parent="Oz8bWutERCQ0BrFYmVm1-395">
          <mxGeometry x="200" y="412.5" width="110" height="40" as="geometry" />
        </mxCell>
        <mxCell id="Oz8bWutERCQ0BrFYmVm1-360" value="Search for interest" style="rhombus;whiteSpace=wrap;html=1;" vertex="1" parent="Oz8bWutERCQ0BrFYmVm1-395">
          <mxGeometry x="510" y="127.5" width="90" height="90" as="geometry" />
        </mxCell>
        <mxCell id="Oz8bWutERCQ0BrFYmVm1-351" style="edgeStyle=orthogonalEdgeStyle;rounded=0;orthogonalLoop=1;jettySize=auto;html=1;entryX=0;entryY=0.5;entryDx=0;entryDy=0;" edge="1" parent="Oz8bWutERCQ0BrFYmVm1-395" source="Oz8bWutERCQ0BrFYmVm1-352" target="Oz8bWutERCQ0BrFYmVm1-360">
          <mxGeometry relative="1" as="geometry" />
        </mxCell>
        <mxCell id="Oz8bWutERCQ0BrFYmVm1-362" value="Use serch or filters" style="rounded=0;whiteSpace=wrap;html=1;" vertex="1" parent="Oz8bWutERCQ0BrFYmVm1-395">
          <mxGeometry x="495" y="252.5" width="120" height="60" as="geometry" />
        </mxCell>
        <mxCell id="Oz8bWutERCQ0BrFYmVm1-358" value="" style="edgeStyle=orthogonalEdgeStyle;rounded=0;orthogonalLoop=1;jettySize=auto;html=1;" edge="1" parent="Oz8bWutERCQ0BrFYmVm1-395" source="Oz8bWutERCQ0BrFYmVm1-360" target="Oz8bWutERCQ0BrFYmVm1-362">
          <mxGeometry relative="1" as="geometry" />
        </mxCell>
        <mxCell id="Oz8bWutERCQ0BrFYmVm1-363" value="" style="edgeStyle=orthogonalEdgeStyle;rounded=0;orthogonalLoop=1;jettySize=auto;html=1;" edge="1" parent="Oz8bWutERCQ0BrFYmVm1-395" source="Oz8bWutERCQ0BrFYmVm1-364">
          <mxGeometry relative="1" as="geometry">
            <mxPoint x="890" y="172.49999999999977" as="targetPoint" />
          </mxGeometry>
        </mxCell>
        <mxCell id="Oz8bWutERCQ0BrFYmVm1-364" value="Select Interest" style="rounded=0;whiteSpace=wrap;html=1;" vertex="1" parent="Oz8bWutERCQ0BrFYmVm1-395">
          <mxGeometry x="710" y="142.5" width="120" height="60" as="geometry" />
        </mxCell>
        <mxCell id="Oz8bWutERCQ0BrFYmVm1-359" value="" style="edgeStyle=orthogonalEdgeStyle;rounded=0;orthogonalLoop=1;jettySize=auto;html=1;" edge="1" parent="Oz8bWutERCQ0BrFYmVm1-395" source="Oz8bWutERCQ0BrFYmVm1-360" target="Oz8bWutERCQ0BrFYmVm1-364">
          <mxGeometry relative="1" as="geometry" />
        </mxCell>
        <mxCell id="Oz8bWutERCQ0BrFYmVm1-361" style="edgeStyle=orthogonalEdgeStyle;rounded=0;orthogonalLoop=1;jettySize=auto;html=1;entryX=0.5;entryY=1;entryDx=0;entryDy=0;" edge="1" parent="Oz8bWutERCQ0BrFYmVm1-395" source="Oz8bWutERCQ0BrFYmVm1-362" target="Oz8bWutERCQ0BrFYmVm1-364">
          <mxGeometry relative="1" as="geometry" />
        </mxCell>
        <mxCell id="Oz8bWutERCQ0BrFYmVm1-365" value="Use search" style="text;html=1;align=center;verticalAlign=middle;resizable=0;points=[];autosize=1;strokeColor=none;fillColor=none;" vertex="1" parent="Oz8bWutERCQ0BrFYmVm1-395">
          <mxGeometry x="465" y="212.5" width="90" height="30" as="geometry" />
        </mxCell>
        <mxCell id="Oz8bWutERCQ0BrFYmVm1-366" value="&lt;div&gt;Select from list&lt;br&gt;&lt;/div&gt;" style="text;html=1;align=center;verticalAlign=middle;resizable=0;points=[];autosize=1;strokeColor=none;fillColor=none;" vertex="1" parent="Oz8bWutERCQ0BrFYmVm1-395">
          <mxGeometry x="601" y="142.5" width="100" height="30" as="geometry" />
        </mxCell>
        <mxCell id="Oz8bWutERCQ0BrFYmVm1-367" value="" style="edgeStyle=orthogonalEdgeStyle;rounded=0;orthogonalLoop=1;jettySize=auto;html=1;" edge="1" parent="Oz8bWutERCQ0BrFYmVm1-395" target="Oz8bWutERCQ0BrFYmVm1-371">
          <mxGeometry relative="1" as="geometry">
            <mxPoint x="960" y="224.99999999999977" as="sourcePoint" />
          </mxGeometry>
        </mxCell>
        <mxCell id="Oz8bWutERCQ0BrFYmVm1-368" value="" style="edgeStyle=orthogonalEdgeStyle;rounded=0;orthogonalLoop=1;jettySize=auto;html=1;" edge="1" parent="Oz8bWutERCQ0BrFYmVm1-395" target="Oz8bWutERCQ0BrFYmVm1-373">
          <mxGeometry relative="1" as="geometry">
            <mxPoint x="1030" y="172.49999999999977" as="sourcePoint" />
          </mxGeometry>
        </mxCell>
        <mxCell id="Oz8bWutERCQ0BrFYmVm1-369" value="Chang Name or Input" style="rhombus;whiteSpace=wrap;html=1;" vertex="1" parent="Oz8bWutERCQ0BrFYmVm1-395">
          <mxGeometry x="890" y="120" width="140" height="105" as="geometry" />
        </mxCell>
        <mxCell id="Oz8bWutERCQ0BrFYmVm1-371" value="Change name" style="whiteSpace=wrap;html=1;" vertex="1" parent="Oz8bWutERCQ0BrFYmVm1-395">
          <mxGeometry x="900" y="327.5" width="120" height="60" as="geometry" />
        </mxCell>
        <mxCell id="Oz8bWutERCQ0BrFYmVm1-373" value="Change Input type" style="whiteSpace=wrap;html=1;" vertex="1" parent="Oz8bWutERCQ0BrFYmVm1-395">
          <mxGeometry x="1120" y="142.5" width="120" height="60" as="geometry" />
        </mxCell>
        <mxCell id="Oz8bWutERCQ0BrFYmVm1-375" value="Sent notification to users to update their interest" style="whiteSpace=wrap;html=1;" vertex="1" parent="Oz8bWutERCQ0BrFYmVm1-395">
          <mxGeometry x="1120" y="327.5" width="120" height="60" as="geometry" />
        </mxCell>
        <mxCell id="Oz8bWutERCQ0BrFYmVm1-370" value="" style="edgeStyle=orthogonalEdgeStyle;rounded=0;orthogonalLoop=1;jettySize=auto;html=1;" edge="1" parent="Oz8bWutERCQ0BrFYmVm1-395" source="Oz8bWutERCQ0BrFYmVm1-371" target="Oz8bWutERCQ0BrFYmVm1-375">
          <mxGeometry relative="1" as="geometry" />
        </mxCell>
        <mxCell id="Oz8bWutERCQ0BrFYmVm1-372" value="" style="edgeStyle=orthogonalEdgeStyle;rounded=0;orthogonalLoop=1;jettySize=auto;html=1;" edge="1" parent="Oz8bWutERCQ0BrFYmVm1-395" source="Oz8bWutERCQ0BrFYmVm1-373" target="Oz8bWutERCQ0BrFYmVm1-375">
          <mxGeometry relative="1" as="geometry" />
        </mxCell>
        <mxCell id="Oz8bWutERCQ0BrFYmVm1-376" style="edgeStyle=orthogonalEdgeStyle;rounded=0;orthogonalLoop=1;jettySize=auto;html=1;" edge="1" parent="Oz8bWutERCQ0BrFYmVm1-395" source="Oz8bWutERCQ0BrFYmVm1-378">
          <mxGeometry relative="1" as="geometry">
            <mxPoint x="420" y="172.5" as="targetPoint" />
          </mxGeometry>
        </mxCell>
        <mxCell id="Oz8bWutERCQ0BrFYmVm1-377" style="edgeStyle=orthogonalEdgeStyle;rounded=0;orthogonalLoop=1;jettySize=auto;html=1;entryX=0.5;entryY=1;entryDx=0;entryDy=0;" edge="1" parent="Oz8bWutERCQ0BrFYmVm1-395" source="Oz8bWutERCQ0BrFYmVm1-378" target="Oz8bWutERCQ0BrFYmVm1-352">
          <mxGeometry relative="1" as="geometry">
            <Array as="points">
              <mxPoint x="1180" y="552.5" />
              <mxPoint x="306" y="552.5" />
            </Array>
          </mxGeometry>
        </mxCell>
        <mxCell id="Oz8bWutERCQ0BrFYmVm1-378" value="Change more Interests" style="rhombus;whiteSpace=wrap;html=1;" vertex="1" parent="Oz8bWutERCQ0BrFYmVm1-395">
          <mxGeometry x="1122.5" y="442.5" width="115" height="85" as="geometry" />
        </mxCell>
        <mxCell id="Oz8bWutERCQ0BrFYmVm1-374" value="" style="edgeStyle=orthogonalEdgeStyle;rounded=0;orthogonalLoop=1;jettySize=auto;html=1;" edge="1" parent="Oz8bWutERCQ0BrFYmVm1-395" source="Oz8bWutERCQ0BrFYmVm1-375" target="Oz8bWutERCQ0BrFYmVm1-378">
          <mxGeometry relative="1" as="geometry" />
        </mxCell>
        <mxCell id="Oz8bWutERCQ0BrFYmVm1-379" value="Add Interest" style="text;html=1;align=center;verticalAlign=middle;resizable=0;points=[];autosize=1;strokeColor=none;fillColor=none;" vertex="1" parent="Oz8bWutERCQ0BrFYmVm1-395">
          <mxGeometry x="176.25" y="142.5" width="90" height="30" as="geometry" />
        </mxCell>
        <mxCell id="Oz8bWutERCQ0BrFYmVm1-380" value="Change Interest" style="text;html=1;align=center;verticalAlign=middle;resizable=0;points=[];autosize=1;strokeColor=none;fillColor=none;" vertex="1" parent="Oz8bWutERCQ0BrFYmVm1-395">
          <mxGeometry x="346.25" y="142.5" width="110" height="30" as="geometry" />
        </mxCell>
        <mxCell id="Oz8bWutERCQ0BrFYmVm1-381" value="Back to Interest settings" style="text;html=1;align=center;verticalAlign=middle;resizable=0;points=[];autosize=1;strokeColor=none;fillColor=none;" vertex="1" parent="Oz8bWutERCQ0BrFYmVm1-395">
          <mxGeometry x="1035" y="520.5" width="150" height="30" as="geometry" />
        </mxCell>
        <mxCell id="Oz8bWutERCQ0BrFYmVm1-382" value="Change Interest" style="text;html=1;align=center;verticalAlign=middle;resizable=0;points=[];autosize=1;strokeColor=none;fillColor=none;" vertex="1" parent="Oz8bWutERCQ0BrFYmVm1-395">
          <mxGeometry x="1015" y="450.5" width="110" height="30" as="geometry" />
        </mxCell>
        <mxCell id="Oz8bWutERCQ0BrFYmVm1-388" value="" style="edgeStyle=orthogonalEdgeStyle;rounded=0;orthogonalLoop=1;jettySize=auto;html=1;" edge="1" parent="Oz8bWutERCQ0BrFYmVm1-395" source="Oz8bWutERCQ0BrFYmVm1-385" target="Oz8bWutERCQ0BrFYmVm1-352">
          <mxGeometry relative="1" as="geometry" />
        </mxCell>
        <mxCell id="Oz8bWutERCQ0BrFYmVm1-385" value="Interest Settings" style="rounded=1;whiteSpace=wrap;html=1;" vertex="1" parent="Oz8bWutERCQ0BrFYmVm1-395">
          <mxGeometry x="246.25" y="20" width="120" height="60" as="geometry" />
        </mxCell>
        <mxCell id="Oz8bWutERCQ0BrFYmVm1-389" value="Back to Admin settings" style="rounded=1;whiteSpace=wrap;html=1;" vertex="1" parent="Oz8bWutERCQ0BrFYmVm1-395">
          <mxGeometry x="100" y="544" width="120" height="60" as="geometry" />
        </mxCell>
        <mxCell id="Oz8bWutERCQ0BrFYmVm1-391" value="" style="edgeStyle=orthogonalEdgeStyle;rounded=0;orthogonalLoop=1;jettySize=auto;html=1;" edge="1" parent="Oz8bWutERCQ0BrFYmVm1-395" source="Oz8bWutERCQ0BrFYmVm1-354" target="Oz8bWutERCQ0BrFYmVm1-389">
          <mxGeometry relative="1" as="geometry" />
        </mxCell>
        <mxCell id="Oz8bWutERCQ0BrFYmVm1-392" value="Back to Admin settings" style="rounded=1;whiteSpace=wrap;html=1;" vertex="1" parent="Oz8bWutERCQ0BrFYmVm1-395">
          <mxGeometry x="1310" y="455" width="120" height="60" as="geometry" />
        </mxCell>
        <mxCell id="Oz8bWutERCQ0BrFYmVm1-393" value="" style="edgeStyle=orthogonalEdgeStyle;rounded=0;orthogonalLoop=1;jettySize=auto;html=1;" edge="1" parent="Oz8bWutERCQ0BrFYmVm1-395" source="Oz8bWutERCQ0BrFYmVm1-378" target="Oz8bWutERCQ0BrFYmVm1-392">
          <mxGeometry relative="1" as="geometry" />
        </mxCell>
        <mxCell id="Oz8bWutERCQ0BrFYmVm1-396" value="&lt;font style=&quot;font-size: 90px;&quot;&gt;Interest Settings&lt;br&gt;&lt;/font&gt;" style="text;html=1;align=center;verticalAlign=middle;resizable=0;points=[];autosize=1;strokeColor=none;fillColor=none;" vertex="1" parent="Oz8bWutERCQ0BrFYmVm1-474">
          <mxGeometry x="420" y="690" width="670" height="120" as="geometry" />
        </mxCell>
        <mxCell id="Oz8bWutERCQ0BrFYmVm1-514" value="" style="group" vertex="1" connectable="0" parent="WIyWlLk6GJQsqaUBKTNV-1">
          <mxGeometry x="-2481" y="1730" width="850" height="803" as="geometry" />
        </mxCell>
        <mxCell id="Oz8bWutERCQ0BrFYmVm1-512" value="&lt;font style=&quot;font-size: 90px;&quot;&gt;Home page Logic&lt;br&gt;&lt;/font&gt;" style="text;html=1;align=center;verticalAlign=middle;resizable=0;points=[];autosize=1;strokeColor=none;fillColor=none;" vertex="1" parent="Oz8bWutERCQ0BrFYmVm1-514">
          <mxGeometry x="60" y="683" width="730" height="120" as="geometry" />
        </mxCell>
        <mxCell id="Oz8bWutERCQ0BrFYmVm1-513" value="" style="group" vertex="1" connectable="0" parent="Oz8bWutERCQ0BrFYmVm1-514">
          <mxGeometry width="850" height="670" as="geometry" />
        </mxCell>
        <mxCell id="Oz8bWutERCQ0BrFYmVm1-511" value="" style="rounded=1;whiteSpace=wrap;html=1;" vertex="1" parent="Oz8bWutERCQ0BrFYmVm1-513">
          <mxGeometry width="850" height="670" as="geometry" />
        </mxCell>
        <mxCell id="Oz8bWutERCQ0BrFYmVm1-483" value="Like recomended match" style="rhombus;whiteSpace=wrap;html=1;" vertex="1" parent="Oz8bWutERCQ0BrFYmVm1-513">
          <mxGeometry x="555" y="160" width="90" height="90" as="geometry" />
        </mxCell>
        <mxCell id="Oz8bWutERCQ0BrFYmVm1-485" value="Show new match" style="whiteSpace=wrap;html=1;" vertex="1" parent="Oz8bWutERCQ0BrFYmVm1-513">
          <mxGeometry x="670" y="265" width="120" height="60" as="geometry" />
        </mxCell>
        <mxCell id="Oz8bWutERCQ0BrFYmVm1-481" value="" style="edgeStyle=orthogonalEdgeStyle;rounded=0;orthogonalLoop=1;jettySize=auto;html=1;" edge="1" parent="Oz8bWutERCQ0BrFYmVm1-513" source="Oz8bWutERCQ0BrFYmVm1-483" target="Oz8bWutERCQ0BrFYmVm1-485">
          <mxGeometry relative="1" as="geometry" />
        </mxCell>
        <mxCell id="Oz8bWutERCQ0BrFYmVm1-488" value="&lt;div&gt;Did other user liked&amp;nbsp;&lt;/div&gt;&lt;div&gt;current user&lt;/div&gt;" style="rhombus;whiteSpace=wrap;html=1;" vertex="1" parent="Oz8bWutERCQ0BrFYmVm1-513">
          <mxGeometry x="330" y="150" width="145" height="110" as="geometry" />
        </mxCell>
        <mxCell id="Oz8bWutERCQ0BrFYmVm1-482" value="" style="edgeStyle=orthogonalEdgeStyle;rounded=0;orthogonalLoop=1;jettySize=auto;html=1;" edge="1" parent="Oz8bWutERCQ0BrFYmVm1-513" source="Oz8bWutERCQ0BrFYmVm1-483" target="Oz8bWutERCQ0BrFYmVm1-488">
          <mxGeometry relative="1" as="geometry" />
        </mxCell>
        <mxCell id="Oz8bWutERCQ0BrFYmVm1-490" value="Send notification to users about match" style="whiteSpace=wrap;html=1;" vertex="1" parent="Oz8bWutERCQ0BrFYmVm1-513">
          <mxGeometry x="342.5" y="305" width="120" height="60" as="geometry" />
        </mxCell>
        <mxCell id="Oz8bWutERCQ0BrFYmVm1-486" value="" style="edgeStyle=orthogonalEdgeStyle;rounded=0;orthogonalLoop=1;jettySize=auto;html=1;" edge="1" parent="Oz8bWutERCQ0BrFYmVm1-513" source="Oz8bWutERCQ0BrFYmVm1-488" target="Oz8bWutERCQ0BrFYmVm1-490">
          <mxGeometry relative="1" as="geometry" />
        </mxCell>
        <mxCell id="Oz8bWutERCQ0BrFYmVm1-492" value="Create chat between users" style="whiteSpace=wrap;html=1;" vertex="1" parent="Oz8bWutERCQ0BrFYmVm1-513">
          <mxGeometry x="342.5" y="445" width="120" height="60" as="geometry" />
        </mxCell>
        <mxCell id="Oz8bWutERCQ0BrFYmVm1-489" value="" style="edgeStyle=orthogonalEdgeStyle;rounded=0;orthogonalLoop=1;jettySize=auto;html=1;" edge="1" parent="Oz8bWutERCQ0BrFYmVm1-513" source="Oz8bWutERCQ0BrFYmVm1-490" target="Oz8bWutERCQ0BrFYmVm1-492">
          <mxGeometry relative="1" as="geometry" />
        </mxCell>
        <mxCell id="Oz8bWutERCQ0BrFYmVm1-494" value="Indicate miss much" style="whiteSpace=wrap;html=1;" vertex="1" parent="Oz8bWutERCQ0BrFYmVm1-513">
          <mxGeometry x="117.5" y="175" width="120" height="60" as="geometry" />
        </mxCell>
        <mxCell id="Oz8bWutERCQ0BrFYmVm1-487" value="" style="edgeStyle=orthogonalEdgeStyle;rounded=0;orthogonalLoop=1;jettySize=auto;html=1;" edge="1" parent="Oz8bWutERCQ0BrFYmVm1-513" source="Oz8bWutERCQ0BrFYmVm1-488" target="Oz8bWutERCQ0BrFYmVm1-494">
          <mxGeometry relative="1" as="geometry" />
        </mxCell>
        <mxCell id="Oz8bWutERCQ0BrFYmVm1-497" style="edgeStyle=orthogonalEdgeStyle;rounded=0;orthogonalLoop=1;jettySize=auto;html=1;entryX=0.5;entryY=0;entryDx=0;entryDy=0;" edge="1" parent="Oz8bWutERCQ0BrFYmVm1-513" source="Oz8bWutERCQ0BrFYmVm1-495" target="Oz8bWutERCQ0BrFYmVm1-483">
          <mxGeometry relative="1" as="geometry" />
        </mxCell>
        <mxCell id="Oz8bWutERCQ0BrFYmVm1-495" value="&lt;div&gt;Home page&lt;/div&gt;&lt;div&gt;logic&lt;br&gt;&lt;/div&gt;" style="rounded=1;whiteSpace=wrap;html=1;" vertex="1" parent="Oz8bWutERCQ0BrFYmVm1-513">
          <mxGeometry x="540" y="20" width="120" height="60" as="geometry" />
        </mxCell>
        <mxCell id="Oz8bWutERCQ0BrFYmVm1-498" value="Disliked" style="text;html=1;align=center;verticalAlign=middle;resizable=0;points=[];autosize=1;strokeColor=none;fillColor=none;" vertex="1" parent="Oz8bWutERCQ0BrFYmVm1-513">
          <mxGeometry x="645" y="175" width="70" height="30" as="geometry" />
        </mxCell>
        <mxCell id="Oz8bWutERCQ0BrFYmVm1-499" value="Liked" style="text;html=1;align=center;verticalAlign=middle;resizable=0;points=[];autosize=1;strokeColor=none;fillColor=none;" vertex="1" parent="Oz8bWutERCQ0BrFYmVm1-513">
          <mxGeometry x="505" y="175" width="50" height="30" as="geometry" />
        </mxCell>
        <mxCell id="Oz8bWutERCQ0BrFYmVm1-503" style="edgeStyle=orthogonalEdgeStyle;rounded=0;orthogonalLoop=1;jettySize=auto;html=1;" edge="1" parent="Oz8bWutERCQ0BrFYmVm1-513" source="Oz8bWutERCQ0BrFYmVm1-500">
          <mxGeometry relative="1" as="geometry">
            <mxPoint x="600" y="130" as="targetPoint" />
            <Array as="points">
              <mxPoint x="30" y="475" />
              <mxPoint x="30" y="130" />
            </Array>
          </mxGeometry>
        </mxCell>
        <mxCell id="Oz8bWutERCQ0BrFYmVm1-500" value="&lt;div&gt;Stay on&amp;nbsp;&lt;/div&gt;&lt;div&gt;Home page&lt;br&gt;&lt;/div&gt;" style="rhombus;whiteSpace=wrap;html=1;" vertex="1" parent="Oz8bWutERCQ0BrFYmVm1-513">
          <mxGeometry x="128.5" y="422.5" width="98" height="105" as="geometry" />
        </mxCell>
        <mxCell id="Oz8bWutERCQ0BrFYmVm1-501" value="" style="edgeStyle=orthogonalEdgeStyle;rounded=0;orthogonalLoop=1;jettySize=auto;html=1;" edge="1" parent="Oz8bWutERCQ0BrFYmVm1-513" source="Oz8bWutERCQ0BrFYmVm1-492" target="Oz8bWutERCQ0BrFYmVm1-500">
          <mxGeometry relative="1" as="geometry" />
        </mxCell>
        <mxCell id="Oz8bWutERCQ0BrFYmVm1-502" style="edgeStyle=orthogonalEdgeStyle;rounded=0;orthogonalLoop=1;jettySize=auto;html=1;entryX=0.5;entryY=0;entryDx=0;entryDy=0;" edge="1" parent="Oz8bWutERCQ0BrFYmVm1-513" source="Oz8bWutERCQ0BrFYmVm1-494" target="Oz8bWutERCQ0BrFYmVm1-500">
          <mxGeometry relative="1" as="geometry" />
        </mxCell>
        <mxCell id="Oz8bWutERCQ0BrFYmVm1-504" value="Switch page" style="rounded=1;whiteSpace=wrap;html=1;" vertex="1" parent="Oz8bWutERCQ0BrFYmVm1-513">
          <mxGeometry x="117.5" y="590" width="120" height="60" as="geometry" />
        </mxCell>
        <mxCell id="Oz8bWutERCQ0BrFYmVm1-505" value="" style="edgeStyle=orthogonalEdgeStyle;rounded=0;orthogonalLoop=1;jettySize=auto;html=1;" edge="1" parent="Oz8bWutERCQ0BrFYmVm1-513" source="Oz8bWutERCQ0BrFYmVm1-500" target="Oz8bWutERCQ0BrFYmVm1-504">
          <mxGeometry relative="1" as="geometry" />
        </mxCell>
        <mxCell id="Oz8bWutERCQ0BrFYmVm1-508" style="edgeStyle=orthogonalEdgeStyle;rounded=0;orthogonalLoop=1;jettySize=auto;html=1;" edge="1" parent="Oz8bWutERCQ0BrFYmVm1-513" source="Oz8bWutERCQ0BrFYmVm1-506">
          <mxGeometry relative="1" as="geometry">
            <mxPoint x="600" y="130" as="targetPoint" />
            <Array as="points">
              <mxPoint x="810" y="463" />
              <mxPoint x="810" y="130" />
            </Array>
          </mxGeometry>
        </mxCell>
        <mxCell id="Oz8bWutERCQ0BrFYmVm1-509" style="edgeStyle=orthogonalEdgeStyle;rounded=0;orthogonalLoop=1;jettySize=auto;html=1;entryX=0.5;entryY=0;entryDx=0;entryDy=0;" edge="1" parent="Oz8bWutERCQ0BrFYmVm1-513" source="Oz8bWutERCQ0BrFYmVm1-506" target="Oz8bWutERCQ0BrFYmVm1-504">
          <mxGeometry relative="1" as="geometry">
            <Array as="points">
              <mxPoint x="730" y="550" />
              <mxPoint x="178" y="550" />
            </Array>
          </mxGeometry>
        </mxCell>
        <mxCell id="Oz8bWutERCQ0BrFYmVm1-506" value="&lt;div&gt;Stay on&amp;nbsp;&lt;/div&gt;&lt;div&gt;Home page&lt;br&gt;&lt;/div&gt;" style="rhombus;whiteSpace=wrap;html=1;" vertex="1" parent="Oz8bWutERCQ0BrFYmVm1-513">
          <mxGeometry x="681" y="410" width="98" height="105" as="geometry" />
        </mxCell>
        <mxCell id="Oz8bWutERCQ0BrFYmVm1-507" value="" style="edgeStyle=orthogonalEdgeStyle;rounded=0;orthogonalLoop=1;jettySize=auto;html=1;" edge="1" parent="Oz8bWutERCQ0BrFYmVm1-513" source="Oz8bWutERCQ0BrFYmVm1-485" target="Oz8bWutERCQ0BrFYmVm1-506">
          <mxGeometry relative="1" as="geometry" />
        </mxCell>
        <mxCell id="Oz8bWutERCQ0BrFYmVm1-559" value="" style="group" vertex="1" connectable="0" parent="WIyWlLk6GJQsqaUBKTNV-1">
          <mxGeometry x="1240" y="280" width="1050" height="1190" as="geometry" />
        </mxCell>
        <mxCell id="Oz8bWutERCQ0BrFYmVm1-556" value="" style="group" vertex="1" connectable="0" parent="Oz8bWutERCQ0BrFYmVm1-559">
          <mxGeometry width="1050" height="1050" as="geometry" />
        </mxCell>
        <mxCell id="Oz8bWutERCQ0BrFYmVm1-555" value="" style="rounded=1;whiteSpace=wrap;html=1;" vertex="1" parent="Oz8bWutERCQ0BrFYmVm1-556">
          <mxGeometry width="1050" height="1050" as="geometry" />
        </mxCell>
        <mxCell id="Oz8bWutERCQ0BrFYmVm1-520" value="&lt;div&gt;Search for&lt;/div&gt;&lt;div&gt;User&lt;br&gt;&lt;/div&gt;" style="rhombus;whiteSpace=wrap;html=1;" vertex="1" parent="Oz8bWutERCQ0BrFYmVm1-556">
          <mxGeometry x="625" y="190" width="90" height="90" as="geometry" />
        </mxCell>
        <mxCell id="Oz8bWutERCQ0BrFYmVm1-522" value="Select user from the list" style="whiteSpace=wrap;html=1;" vertex="1" parent="Oz8bWutERCQ0BrFYmVm1-556">
          <mxGeometry x="610" y="430" width="120" height="60" as="geometry" />
        </mxCell>
        <mxCell id="Oz8bWutERCQ0BrFYmVm1-518" value="" style="edgeStyle=orthogonalEdgeStyle;rounded=0;orthogonalLoop=1;jettySize=auto;html=1;" edge="1" parent="Oz8bWutERCQ0BrFYmVm1-556" source="Oz8bWutERCQ0BrFYmVm1-520" target="Oz8bWutERCQ0BrFYmVm1-522">
          <mxGeometry relative="1" as="geometry" />
        </mxCell>
        <mxCell id="Oz8bWutERCQ0BrFYmVm1-523" style="edgeStyle=orthogonalEdgeStyle;rounded=0;orthogonalLoop=1;jettySize=auto;html=1;entryX=0.5;entryY=0;entryDx=0;entryDy=0;" edge="1" parent="Oz8bWutERCQ0BrFYmVm1-556" source="Oz8bWutERCQ0BrFYmVm1-524" target="Oz8bWutERCQ0BrFYmVm1-522">
          <mxGeometry relative="1" as="geometry">
            <Array as="points">
              <mxPoint x="500" y="330" />
              <mxPoint x="670" y="330" />
            </Array>
          </mxGeometry>
        </mxCell>
        <mxCell id="Oz8bWutERCQ0BrFYmVm1-524" value="Search or use filter" style="whiteSpace=wrap;html=1;" vertex="1" parent="Oz8bWutERCQ0BrFYmVm1-556">
          <mxGeometry x="440" y="205" width="120" height="60" as="geometry" />
        </mxCell>
        <mxCell id="Oz8bWutERCQ0BrFYmVm1-519" value="" style="edgeStyle=orthogonalEdgeStyle;rounded=0;orthogonalLoop=1;jettySize=auto;html=1;" edge="1" parent="Oz8bWutERCQ0BrFYmVm1-556" source="Oz8bWutERCQ0BrFYmVm1-520" target="Oz8bWutERCQ0BrFYmVm1-524">
          <mxGeometry relative="1" as="geometry" />
        </mxCell>
        <mxCell id="Oz8bWutERCQ0BrFYmVm1-527" value="&lt;div&gt;Send message&amp;nbsp;&lt;/div&gt;&lt;div&gt;or&lt;/div&gt;&lt;div&gt;React to message&lt;br&gt;&lt;/div&gt;" style="rhombus;whiteSpace=wrap;html=1;" vertex="1" parent="Oz8bWutERCQ0BrFYmVm1-556">
          <mxGeometry x="590" y="560" width="160" height="120" as="geometry" />
        </mxCell>
        <mxCell id="Oz8bWutERCQ0BrFYmVm1-521" value="" style="edgeStyle=orthogonalEdgeStyle;rounded=0;orthogonalLoop=1;jettySize=auto;html=1;" edge="1" parent="Oz8bWutERCQ0BrFYmVm1-556" source="Oz8bWutERCQ0BrFYmVm1-522" target="Oz8bWutERCQ0BrFYmVm1-527">
          <mxGeometry relative="1" as="geometry" />
        </mxCell>
        <mxCell id="Oz8bWutERCQ0BrFYmVm1-529" value="Select message" style="whiteSpace=wrap;html=1;" vertex="1" parent="Oz8bWutERCQ0BrFYmVm1-556">
          <mxGeometry x="850" y="590" width="120" height="60" as="geometry" />
        </mxCell>
        <mxCell id="Oz8bWutERCQ0BrFYmVm1-525" value="" style="edgeStyle=orthogonalEdgeStyle;rounded=0;orthogonalLoop=1;jettySize=auto;html=1;" edge="1" parent="Oz8bWutERCQ0BrFYmVm1-556" source="Oz8bWutERCQ0BrFYmVm1-527" target="Oz8bWutERCQ0BrFYmVm1-529">
          <mxGeometry relative="1" as="geometry" />
        </mxCell>
        <mxCell id="Oz8bWutERCQ0BrFYmVm1-530" style="edgeStyle=orthogonalEdgeStyle;rounded=0;orthogonalLoop=1;jettySize=auto;html=1;exitX=1;exitY=0.5;exitDx=0;exitDy=0;" edge="1" parent="Oz8bWutERCQ0BrFYmVm1-556" source="Oz8bWutERCQ0BrFYmVm1-542">
          <mxGeometry relative="1" as="geometry">
            <mxPoint x="670" y="530" as="targetPoint" />
            <mxPoint x="970" y="759.9655172413795" as="sourcePoint" />
            <Array as="points">
              <mxPoint x="1000" y="770" />
              <mxPoint x="1000" y="530" />
            </Array>
          </mxGeometry>
        </mxCell>
        <mxCell id="Oz8bWutERCQ0BrFYmVm1-532" value="Reply&amp;nbsp; to message" style="rhombus;whiteSpace=wrap;html=1;" vertex="1" parent="Oz8bWutERCQ0BrFYmVm1-556">
          <mxGeometry x="390" y="580" width="80" height="80" as="geometry" />
        </mxCell>
        <mxCell id="Oz8bWutERCQ0BrFYmVm1-526" value="" style="edgeStyle=orthogonalEdgeStyle;rounded=0;orthogonalLoop=1;jettySize=auto;html=1;" edge="1" parent="Oz8bWutERCQ0BrFYmVm1-556" source="Oz8bWutERCQ0BrFYmVm1-527" target="Oz8bWutERCQ0BrFYmVm1-532">
          <mxGeometry relative="1" as="geometry" />
        </mxCell>
        <mxCell id="Oz8bWutERCQ0BrFYmVm1-534" value="Select message to reply" style="whiteSpace=wrap;html=1;" vertex="1" parent="Oz8bWutERCQ0BrFYmVm1-556">
          <mxGeometry x="210" y="590" width="120" height="60" as="geometry" />
        </mxCell>
        <mxCell id="Oz8bWutERCQ0BrFYmVm1-531" value="" style="edgeStyle=orthogonalEdgeStyle;rounded=0;orthogonalLoop=1;jettySize=auto;html=1;" edge="1" parent="Oz8bWutERCQ0BrFYmVm1-556" source="Oz8bWutERCQ0BrFYmVm1-532" target="Oz8bWutERCQ0BrFYmVm1-534">
          <mxGeometry relative="1" as="geometry" />
        </mxCell>
        <mxCell id="Oz8bWutERCQ0BrFYmVm1-536" value="Enter Message" style="shape=parallelogram;perimeter=parallelogramPerimeter;whiteSpace=wrap;html=1;fixedSize=1;" vertex="1" parent="Oz8bWutERCQ0BrFYmVm1-556">
          <mxGeometry x="260" y="760" width="120" height="60" as="geometry" />
        </mxCell>
        <mxCell id="Oz8bWutERCQ0BrFYmVm1-533" value="" style="edgeStyle=orthogonalEdgeStyle;rounded=0;orthogonalLoop=1;jettySize=auto;html=1;" edge="1" parent="Oz8bWutERCQ0BrFYmVm1-556" source="Oz8bWutERCQ0BrFYmVm1-534" target="Oz8bWutERCQ0BrFYmVm1-536">
          <mxGeometry relative="1" as="geometry" />
        </mxCell>
        <mxCell id="Oz8bWutERCQ0BrFYmVm1-537" style="edgeStyle=orthogonalEdgeStyle;rounded=0;orthogonalLoop=1;jettySize=auto;html=1;entryX=0.914;entryY=0.605;entryDx=0;entryDy=0;entryPerimeter=0;" edge="1" parent="Oz8bWutERCQ0BrFYmVm1-556" source="Oz8bWutERCQ0BrFYmVm1-532" target="Oz8bWutERCQ0BrFYmVm1-536">
          <mxGeometry relative="1" as="geometry">
            <Array as="points">
              <mxPoint x="440" y="796" />
            </Array>
          </mxGeometry>
        </mxCell>
        <mxCell id="Oz8bWutERCQ0BrFYmVm1-538" style="edgeStyle=orthogonalEdgeStyle;rounded=0;orthogonalLoop=1;jettySize=auto;html=1;exitX=0;exitY=0.5;exitDx=0;exitDy=0;" edge="1" parent="Oz8bWutERCQ0BrFYmVm1-556" source="Oz8bWutERCQ0BrFYmVm1-540">
          <mxGeometry relative="1" as="geometry">
            <mxPoint x="670" y="530" as="targetPoint" />
            <mxPoint x="260" y="930.0285714285715" as="sourcePoint" />
            <Array as="points">
              <mxPoint x="150" y="925" />
              <mxPoint x="150" y="530" />
            </Array>
          </mxGeometry>
        </mxCell>
        <mxCell id="Oz8bWutERCQ0BrFYmVm1-540" value="Send message" style="rhombus;whiteSpace=wrap;html=1;" vertex="1" parent="Oz8bWutERCQ0BrFYmVm1-556">
          <mxGeometry x="280" y="880" width="80" height="90" as="geometry" />
        </mxCell>
        <mxCell id="Oz8bWutERCQ0BrFYmVm1-535" value="" style="edgeStyle=orthogonalEdgeStyle;rounded=0;orthogonalLoop=1;jettySize=auto;html=1;entryX=0.5;entryY=0;entryDx=0;entryDy=0;" edge="1" parent="Oz8bWutERCQ0BrFYmVm1-556" source="Oz8bWutERCQ0BrFYmVm1-536" target="Oz8bWutERCQ0BrFYmVm1-540">
          <mxGeometry relative="1" as="geometry">
            <mxPoint x="320" y="900" as="targetPoint" />
          </mxGeometry>
        </mxCell>
        <mxCell id="Oz8bWutERCQ0BrFYmVm1-542" value="Select reaction to use" style="rhombus;whiteSpace=wrap;html=1;" vertex="1" parent="Oz8bWutERCQ0BrFYmVm1-556">
          <mxGeometry x="870" y="730" width="80" height="80" as="geometry" />
        </mxCell>
        <mxCell id="Oz8bWutERCQ0BrFYmVm1-528" value="" style="edgeStyle=orthogonalEdgeStyle;rounded=0;orthogonalLoop=1;jettySize=auto;html=1;entryX=0.5;entryY=0;entryDx=0;entryDy=0;" edge="1" parent="Oz8bWutERCQ0BrFYmVm1-556" source="Oz8bWutERCQ0BrFYmVm1-529" target="Oz8bWutERCQ0BrFYmVm1-542">
          <mxGeometry relative="1" as="geometry">
            <mxPoint x="910" y="729.9999999999995" as="targetPoint" />
          </mxGeometry>
        </mxCell>
        <mxCell id="Oz8bWutERCQ0BrFYmVm1-544" style="edgeStyle=orthogonalEdgeStyle;rounded=0;orthogonalLoop=1;jettySize=auto;html=1;entryX=0.5;entryY=0;entryDx=0;entryDy=0;" edge="1" parent="Oz8bWutERCQ0BrFYmVm1-556" source="Oz8bWutERCQ0BrFYmVm1-543" target="Oz8bWutERCQ0BrFYmVm1-520">
          <mxGeometry relative="1" as="geometry" />
        </mxCell>
        <mxCell id="Oz8bWutERCQ0BrFYmVm1-543" value="Chat page" style="rounded=1;whiteSpace=wrap;html=1;" vertex="1" parent="Oz8bWutERCQ0BrFYmVm1-556">
          <mxGeometry x="610" y="30" width="120" height="60" as="geometry" />
        </mxCell>
        <mxCell id="Oz8bWutERCQ0BrFYmVm1-548" style="edgeStyle=orthogonalEdgeStyle;rounded=0;orthogonalLoop=1;jettySize=auto;html=1;exitX=0;exitY=0.5;exitDx=0;exitDy=0;" edge="1" parent="Oz8bWutERCQ0BrFYmVm1-556" source="Oz8bWutERCQ0BrFYmVm1-545">
          <mxGeometry relative="1" as="geometry">
            <mxPoint x="670" y="130" as="targetPoint" />
            <Array as="points">
              <mxPoint x="530" y="925" />
              <mxPoint x="530" y="990" />
              <mxPoint x="60" y="990" />
              <mxPoint x="60" y="130" />
            </Array>
          </mxGeometry>
        </mxCell>
        <mxCell id="Oz8bWutERCQ0BrFYmVm1-545" value="&lt;div&gt;Stay in&amp;nbsp;&lt;/div&gt;&lt;div&gt;chat page&lt;br&gt;&lt;/div&gt;" style="rhombus;whiteSpace=wrap;html=1;" vertex="1" parent="Oz8bWutERCQ0BrFYmVm1-556">
          <mxGeometry x="570" y="885" width="80" height="80" as="geometry" />
        </mxCell>
        <mxCell id="Oz8bWutERCQ0BrFYmVm1-547" style="edgeStyle=orthogonalEdgeStyle;rounded=0;orthogonalLoop=1;jettySize=auto;html=1;entryX=0.5;entryY=0;entryDx=0;entryDy=0;" edge="1" parent="Oz8bWutERCQ0BrFYmVm1-556" source="Oz8bWutERCQ0BrFYmVm1-540" target="Oz8bWutERCQ0BrFYmVm1-545">
          <mxGeometry relative="1" as="geometry" />
        </mxCell>
        <mxCell id="Oz8bWutERCQ0BrFYmVm1-546" style="edgeStyle=orthogonalEdgeStyle;rounded=0;orthogonalLoop=1;jettySize=auto;html=1;entryX=0.5;entryY=0;entryDx=0;entryDy=0;" edge="1" parent="Oz8bWutERCQ0BrFYmVm1-556" source="Oz8bWutERCQ0BrFYmVm1-542" target="Oz8bWutERCQ0BrFYmVm1-545">
          <mxGeometry relative="1" as="geometry" />
        </mxCell>
        <mxCell id="Oz8bWutERCQ0BrFYmVm1-553" value="Swithc page" style="rounded=1;whiteSpace=wrap;html=1;" vertex="1" parent="Oz8bWutERCQ0BrFYmVm1-556">
          <mxGeometry x="710" y="895" width="120" height="60" as="geometry" />
        </mxCell>
        <mxCell id="Oz8bWutERCQ0BrFYmVm1-554" value="" style="edgeStyle=orthogonalEdgeStyle;rounded=0;orthogonalLoop=1;jettySize=auto;html=1;" edge="1" parent="Oz8bWutERCQ0BrFYmVm1-556" source="Oz8bWutERCQ0BrFYmVm1-545" target="Oz8bWutERCQ0BrFYmVm1-553">
          <mxGeometry relative="1" as="geometry" />
        </mxCell>
        <mxCell id="Oz8bWutERCQ0BrFYmVm1-557" value="Text" style="text;html=1;align=center;verticalAlign=middle;whiteSpace=wrap;rounded=0;" vertex="1" parent="Oz8bWutERCQ0BrFYmVm1-559">
          <mxGeometry x="10" y="670" width="60" height="30" as="geometry" />
        </mxCell>
        <mxCell id="Oz8bWutERCQ0BrFYmVm1-558" value="&lt;font style=&quot;font-size: 90px;&quot;&gt;Chat page&lt;br&gt;&lt;/font&gt;" style="text;html=1;align=center;verticalAlign=middle;resizable=0;points=[];autosize=1;strokeColor=none;fillColor=none;" vertex="1" parent="Oz8bWutERCQ0BrFYmVm1-559">
          <mxGeometry x="305" y="1070" width="440" height="120" as="geometry" />
        </mxCell>
        <mxCell id="Oz8bWutERCQ0BrFYmVm1-587" value="" style="group" vertex="1" connectable="0" parent="WIyWlLk6GJQsqaUBKTNV-1">
          <mxGeometry x="2650" y="220" width="680" height="990" as="geometry" />
        </mxCell>
        <mxCell id="Oz8bWutERCQ0BrFYmVm1-585" value="&lt;font style=&quot;font-size: 90px;&quot;&gt;Settings Page&lt;br&gt;&lt;/font&gt;" style="text;html=1;align=center;verticalAlign=middle;resizable=0;points=[];autosize=1;strokeColor=none;fillColor=none;" vertex="1" parent="Oz8bWutERCQ0BrFYmVm1-587">
          <mxGeometry x="50" y="870" width="580" height="120" as="geometry" />
        </mxCell>
        <mxCell id="Oz8bWutERCQ0BrFYmVm1-586" value="" style="group" vertex="1" connectable="0" parent="Oz8bWutERCQ0BrFYmVm1-587">
          <mxGeometry width="680" height="860" as="geometry" />
        </mxCell>
        <mxCell id="Oz8bWutERCQ0BrFYmVm1-584" value="" style="rounded=1;whiteSpace=wrap;html=1;" vertex="1" parent="Oz8bWutERCQ0BrFYmVm1-586">
          <mxGeometry width="680" height="860" as="geometry" />
        </mxCell>
        <mxCell id="Oz8bWutERCQ0BrFYmVm1-565" value="Change password&lt;br&gt;or&lt;br&gt;Delete account" style="rhombus;whiteSpace=wrap;html=1;" vertex="1" parent="Oz8bWutERCQ0BrFYmVm1-586">
          <mxGeometry x="260" y="442.5" width="160" height="160" as="geometry" />
        </mxCell>
        <mxCell id="Oz8bWutERCQ0BrFYmVm1-567" value="Confirm old password" style="shape=parallelogram;perimeter=parallelogramPerimeter;whiteSpace=wrap;html=1;fixedSize=1;" vertex="1" parent="Oz8bWutERCQ0BrFYmVm1-586">
          <mxGeometry x="280" y="297.5" width="120" height="60" as="geometry" />
        </mxCell>
        <mxCell id="Oz8bWutERCQ0BrFYmVm1-563" value="" style="edgeStyle=orthogonalEdgeStyle;rounded=0;orthogonalLoop=1;jettySize=auto;html=1;" edge="1" parent="Oz8bWutERCQ0BrFYmVm1-586" source="Oz8bWutERCQ0BrFYmVm1-565" target="Oz8bWutERCQ0BrFYmVm1-567">
          <mxGeometry relative="1" as="geometry" />
        </mxCell>
        <mxCell id="Oz8bWutERCQ0BrFYmVm1-568" value="&lt;div&gt;Enter new&amp;nbsp;&lt;/div&gt;&lt;div&gt;password&lt;/div&gt;" style="shape=parallelogram;perimeter=parallelogramPerimeter;whiteSpace=wrap;html=1;fixedSize=1;" vertex="1" parent="Oz8bWutERCQ0BrFYmVm1-586">
          <mxGeometry x="280" y="157.5" width="120" height="60" as="geometry" />
        </mxCell>
        <mxCell id="Oz8bWutERCQ0BrFYmVm1-566" value="" style="edgeStyle=orthogonalEdgeStyle;rounded=0;orthogonalLoop=1;jettySize=auto;html=1;" edge="1" parent="Oz8bWutERCQ0BrFYmVm1-586" source="Oz8bWutERCQ0BrFYmVm1-567" target="Oz8bWutERCQ0BrFYmVm1-568">
          <mxGeometry relative="1" as="geometry" />
        </mxCell>
        <mxCell id="Oz8bWutERCQ0BrFYmVm1-571" value="Delete Account" style="rhombus;whiteSpace=wrap;html=1;" vertex="1" parent="Oz8bWutERCQ0BrFYmVm1-586">
          <mxGeometry x="60" y="482.5" width="80" height="80" as="geometry" />
        </mxCell>
        <mxCell id="Oz8bWutERCQ0BrFYmVm1-564" value="" style="edgeStyle=orthogonalEdgeStyle;rounded=0;orthogonalLoop=1;jettySize=auto;html=1;" edge="1" parent="Oz8bWutERCQ0BrFYmVm1-586" source="Oz8bWutERCQ0BrFYmVm1-565" target="Oz8bWutERCQ0BrFYmVm1-571">
          <mxGeometry relative="1" as="geometry" />
        </mxCell>
        <mxCell id="Oz8bWutERCQ0BrFYmVm1-573" value="Confirm delition" style="shape=parallelogram;perimeter=parallelogramPerimeter;whiteSpace=wrap;html=1;fixedSize=1;" vertex="1" parent="Oz8bWutERCQ0BrFYmVm1-586">
          <mxGeometry x="40" y="332.5" width="120" height="60" as="geometry" />
        </mxCell>
        <mxCell id="Oz8bWutERCQ0BrFYmVm1-569" value="" style="edgeStyle=orthogonalEdgeStyle;rounded=0;orthogonalLoop=1;jettySize=auto;html=1;" edge="1" parent="Oz8bWutERCQ0BrFYmVm1-586" source="Oz8bWutERCQ0BrFYmVm1-571" target="Oz8bWutERCQ0BrFYmVm1-573">
          <mxGeometry relative="1" as="geometry" />
        </mxCell>
        <mxCell id="Oz8bWutERCQ0BrFYmVm1-574" value="User Account Deleted" style="rounded=1;whiteSpace=wrap;html=1;" vertex="1" parent="Oz8bWutERCQ0BrFYmVm1-586">
          <mxGeometry x="40" y="217.5" width="120" height="60" as="geometry" />
        </mxCell>
        <mxCell id="Oz8bWutERCQ0BrFYmVm1-572" value="" style="edgeStyle=orthogonalEdgeStyle;rounded=0;orthogonalLoop=1;jettySize=auto;html=1;" edge="1" parent="Oz8bWutERCQ0BrFYmVm1-586" source="Oz8bWutERCQ0BrFYmVm1-573" target="Oz8bWutERCQ0BrFYmVm1-574">
          <mxGeometry relative="1" as="geometry" />
        </mxCell>
        <mxCell id="Oz8bWutERCQ0BrFYmVm1-576" style="edgeStyle=orthogonalEdgeStyle;rounded=0;orthogonalLoop=1;jettySize=auto;html=1;entryX=1;entryY=0.5;entryDx=0;entryDy=0;" edge="1" parent="Oz8bWutERCQ0BrFYmVm1-586" source="Oz8bWutERCQ0BrFYmVm1-575" target="Oz8bWutERCQ0BrFYmVm1-565">
          <mxGeometry relative="1" as="geometry" />
        </mxCell>
        <mxCell id="Oz8bWutERCQ0BrFYmVm1-575" value="Settings page" style="rounded=1;whiteSpace=wrap;html=1;" vertex="1" parent="Oz8bWutERCQ0BrFYmVm1-586">
          <mxGeometry x="538" y="493" width="120" height="60" as="geometry" />
        </mxCell>
        <mxCell id="Oz8bWutERCQ0BrFYmVm1-577" value="&lt;div&gt;Swithc to&lt;/div&gt;&lt;div&gt;Log-in page&lt;br&gt;&lt;/div&gt;" style="rounded=1;whiteSpace=wrap;html=1;" vertex="1" parent="Oz8bWutERCQ0BrFYmVm1-586">
          <mxGeometry x="280" y="17.5" width="120" height="60" as="geometry" />
        </mxCell>
        <mxCell id="Oz8bWutERCQ0BrFYmVm1-578" value="" style="edgeStyle=orthogonalEdgeStyle;rounded=0;orthogonalLoop=1;jettySize=auto;html=1;" edge="1" parent="Oz8bWutERCQ0BrFYmVm1-586" source="Oz8bWutERCQ0BrFYmVm1-568" target="Oz8bWutERCQ0BrFYmVm1-577">
          <mxGeometry relative="1" as="geometry" />
        </mxCell>
        <mxCell id="Oz8bWutERCQ0BrFYmVm1-581" style="edgeStyle=orthogonalEdgeStyle;rounded=0;orthogonalLoop=1;jettySize=auto;html=1;entryX=1;entryY=0.5;entryDx=0;entryDy=0;" edge="1" parent="Oz8bWutERCQ0BrFYmVm1-586" source="Oz8bWutERCQ0BrFYmVm1-579" target="Oz8bWutERCQ0BrFYmVm1-565">
          <mxGeometry relative="1" as="geometry">
            <mxPoint x="490" y="530" as="targetPoint" />
            <Array as="points">
              <mxPoint x="470" y="664" />
              <mxPoint x="470" y="523" />
            </Array>
          </mxGeometry>
        </mxCell>
        <mxCell id="Oz8bWutERCQ0BrFYmVm1-579" value="&lt;div&gt;Stay in settings &lt;br&gt;&lt;/div&gt;&lt;div&gt;or&lt;/div&gt;&lt;div&gt;Switch page&lt;br&gt;&lt;/div&gt;" style="rhombus;whiteSpace=wrap;html=1;" vertex="1" parent="Oz8bWutERCQ0BrFYmVm1-586">
          <mxGeometry x="20" y="610" width="160" height="107.5" as="geometry" />
        </mxCell>
        <mxCell id="Oz8bWutERCQ0BrFYmVm1-580" value="" style="edgeStyle=orthogonalEdgeStyle;rounded=0;orthogonalLoop=1;jettySize=auto;html=1;" edge="1" parent="Oz8bWutERCQ0BrFYmVm1-586" source="Oz8bWutERCQ0BrFYmVm1-571" target="Oz8bWutERCQ0BrFYmVm1-579">
          <mxGeometry relative="1" as="geometry" />
        </mxCell>
        <mxCell id="Oz8bWutERCQ0BrFYmVm1-582" value="Switch page" style="rounded=1;whiteSpace=wrap;html=1;" vertex="1" parent="Oz8bWutERCQ0BrFYmVm1-586">
          <mxGeometry x="40" y="770" width="120" height="60" as="geometry" />
        </mxCell>
        <mxCell id="Oz8bWutERCQ0BrFYmVm1-583" value="" style="edgeStyle=orthogonalEdgeStyle;rounded=0;orthogonalLoop=1;jettySize=auto;html=1;" edge="1" parent="Oz8bWutERCQ0BrFYmVm1-586" source="Oz8bWutERCQ0BrFYmVm1-579" target="Oz8bWutERCQ0BrFYmVm1-582">
          <mxGeometry relative="1" as="geometry" />
        </mxCell>
        <mxCell id="Oz8bWutERCQ0BrFYmVm1-614" value="" style="group" vertex="1" connectable="0" parent="WIyWlLk6GJQsqaUBKTNV-1">
          <mxGeometry x="-2420" y="410" width="640" height="1080" as="geometry" />
        </mxCell>
        <mxCell id="Oz8bWutERCQ0BrFYmVm1-612" value="" style="group" vertex="1" connectable="0" parent="Oz8bWutERCQ0BrFYmVm1-614">
          <mxGeometry x="140" width="360" height="960" as="geometry" />
        </mxCell>
        <mxCell id="Oz8bWutERCQ0BrFYmVm1-611" value="" style="rounded=1;whiteSpace=wrap;html=1;" vertex="1" parent="Oz8bWutERCQ0BrFYmVm1-612">
          <mxGeometry width="360" height="960" as="geometry" />
        </mxCell>
        <mxCell id="Oz8bWutERCQ0BrFYmVm1-593" value="Create Account" style="rounded=1;whiteSpace=wrap;html=1;" vertex="1" parent="Oz8bWutERCQ0BrFYmVm1-612">
          <mxGeometry x="60" y="30" width="120" height="60" as="geometry" />
        </mxCell>
        <mxCell id="Oz8bWutERCQ0BrFYmVm1-596" value="Enter Email" style="shape=parallelogram;perimeter=parallelogramPerimeter;whiteSpace=wrap;html=1;fixedSize=1;" vertex="1" parent="Oz8bWutERCQ0BrFYmVm1-612">
          <mxGeometry x="60" y="148" width="120" height="60" as="geometry" />
        </mxCell>
        <mxCell id="Oz8bWutERCQ0BrFYmVm1-597" value="" style="edgeStyle=orthogonalEdgeStyle;rounded=0;orthogonalLoop=1;jettySize=auto;html=1;" edge="1" parent="Oz8bWutERCQ0BrFYmVm1-612" source="Oz8bWutERCQ0BrFYmVm1-593" target="Oz8bWutERCQ0BrFYmVm1-596">
          <mxGeometry relative="1" as="geometry" />
        </mxCell>
        <mxCell id="Oz8bWutERCQ0BrFYmVm1-598" value="Enterpassword" style="shape=parallelogram;perimeter=parallelogramPerimeter;whiteSpace=wrap;html=1;fixedSize=1;" vertex="1" parent="Oz8bWutERCQ0BrFYmVm1-612">
          <mxGeometry x="60" y="288" width="120" height="60" as="geometry" />
        </mxCell>
        <mxCell id="Oz8bWutERCQ0BrFYmVm1-599" value="" style="edgeStyle=orthogonalEdgeStyle;rounded=0;orthogonalLoop=1;jettySize=auto;html=1;" edge="1" parent="Oz8bWutERCQ0BrFYmVm1-612" source="Oz8bWutERCQ0BrFYmVm1-596" target="Oz8bWutERCQ0BrFYmVm1-598">
          <mxGeometry relative="1" as="geometry" />
        </mxCell>
        <mxCell id="Oz8bWutERCQ0BrFYmVm1-600" value="Confirm password" style="whiteSpace=wrap;html=1;" vertex="1" parent="Oz8bWutERCQ0BrFYmVm1-612">
          <mxGeometry x="60" y="428" width="120" height="60" as="geometry" />
        </mxCell>
        <mxCell id="Oz8bWutERCQ0BrFYmVm1-601" value="" style="edgeStyle=orthogonalEdgeStyle;rounded=0;orthogonalLoop=1;jettySize=auto;html=1;" edge="1" parent="Oz8bWutERCQ0BrFYmVm1-612" source="Oz8bWutERCQ0BrFYmVm1-598" target="Oz8bWutERCQ0BrFYmVm1-600">
          <mxGeometry relative="1" as="geometry" />
        </mxCell>
        <mxCell id="Oz8bWutERCQ0BrFYmVm1-602" value="&lt;div&gt;Upload&amp;nbsp;&lt;/div&gt;&lt;div&gt;Photo&lt;/div&gt;" style="rhombus;whiteSpace=wrap;html=1;" vertex="1" parent="Oz8bWutERCQ0BrFYmVm1-612">
          <mxGeometry x="80" y="558" width="80" height="80" as="geometry" />
        </mxCell>
        <mxCell id="Oz8bWutERCQ0BrFYmVm1-603" value="" style="edgeStyle=orthogonalEdgeStyle;rounded=0;orthogonalLoop=1;jettySize=auto;html=1;" edge="1" parent="Oz8bWutERCQ0BrFYmVm1-612" source="Oz8bWutERCQ0BrFYmVm1-600" target="Oz8bWutERCQ0BrFYmVm1-602">
          <mxGeometry relative="1" as="geometry" />
        </mxCell>
        <mxCell id="Oz8bWutERCQ0BrFYmVm1-604" value="Upload Photo" style="shape=parallelogram;perimeter=parallelogramPerimeter;whiteSpace=wrap;html=1;fixedSize=1;" vertex="1" parent="Oz8bWutERCQ0BrFYmVm1-612">
          <mxGeometry x="220" y="568" width="120" height="60" as="geometry" />
        </mxCell>
        <mxCell id="Oz8bWutERCQ0BrFYmVm1-605" value="" style="edgeStyle=orthogonalEdgeStyle;rounded=0;orthogonalLoop=1;jettySize=auto;html=1;" edge="1" parent="Oz8bWutERCQ0BrFYmVm1-612" source="Oz8bWutERCQ0BrFYmVm1-602" target="Oz8bWutERCQ0BrFYmVm1-604">
          <mxGeometry relative="1" as="geometry" />
        </mxCell>
        <mxCell id="Oz8bWutERCQ0BrFYmVm1-606" value="Complite Quiz" style="whiteSpace=wrap;html=1;" vertex="1" parent="Oz8bWutERCQ0BrFYmVm1-612">
          <mxGeometry x="60" y="728" width="120" height="60" as="geometry" />
        </mxCell>
        <mxCell id="Oz8bWutERCQ0BrFYmVm1-607" value="" style="edgeStyle=orthogonalEdgeStyle;rounded=0;orthogonalLoop=1;jettySize=auto;html=1;" edge="1" parent="Oz8bWutERCQ0BrFYmVm1-612" source="Oz8bWutERCQ0BrFYmVm1-602" target="Oz8bWutERCQ0BrFYmVm1-606">
          <mxGeometry relative="1" as="geometry" />
        </mxCell>
        <mxCell id="Oz8bWutERCQ0BrFYmVm1-608" style="edgeStyle=orthogonalEdgeStyle;rounded=0;orthogonalLoop=1;jettySize=auto;html=1;entryX=0.5;entryY=0;entryDx=0;entryDy=0;" edge="1" parent="Oz8bWutERCQ0BrFYmVm1-612" source="Oz8bWutERCQ0BrFYmVm1-604" target="Oz8bWutERCQ0BrFYmVm1-606">
          <mxGeometry relative="1" as="geometry">
            <Array as="points">
              <mxPoint x="280" y="680" />
              <mxPoint x="120" y="680" />
            </Array>
          </mxGeometry>
        </mxCell>
        <mxCell id="Oz8bWutERCQ0BrFYmVm1-609" value="&lt;div&gt;Switch to&amp;nbsp;&lt;/div&gt;Log-in page" style="rounded=1;whiteSpace=wrap;html=1;" vertex="1" parent="Oz8bWutERCQ0BrFYmVm1-612">
          <mxGeometry x="60" y="868" width="120" height="60" as="geometry" />
        </mxCell>
        <mxCell id="Oz8bWutERCQ0BrFYmVm1-610" value="" style="edgeStyle=orthogonalEdgeStyle;rounded=0;orthogonalLoop=1;jettySize=auto;html=1;" edge="1" parent="Oz8bWutERCQ0BrFYmVm1-612" source="Oz8bWutERCQ0BrFYmVm1-606" target="Oz8bWutERCQ0BrFYmVm1-609">
          <mxGeometry relative="1" as="geometry" />
        </mxCell>
        <mxCell id="Oz8bWutERCQ0BrFYmVm1-613" value="&lt;font style=&quot;font-size: 90px;&quot;&gt;Create Account&lt;/font&gt;" style="text;html=1;align=center;verticalAlign=middle;resizable=0;points=[];autosize=1;strokeColor=none;fillColor=none;" vertex="1" parent="Oz8bWutERCQ0BrFYmVm1-614">
          <mxGeometry y="960" width="640" height="120" as="geometry" />
        </mxCell>
        <mxCell id="Oz8bWutERCQ0BrFYmVm1-621" value="" style="group" vertex="1" connectable="0" parent="WIyWlLk6GJQsqaUBKTNV-1">
          <mxGeometry x="-1150" y="-320" width="1970" height="1240" as="geometry" />
        </mxCell>
        <mxCell id="Oz8bWutERCQ0BrFYmVm1-619" value="&lt;font style=&quot;font-size: 90px;&quot;&gt;Website Logic&lt;br&gt;&lt;/font&gt;" style="text;html=1;align=center;verticalAlign=middle;resizable=0;points=[];autosize=1;strokeColor=#82b366;fillColor=#d5e8d4;" vertex="1" parent="Oz8bWutERCQ0BrFYmVm1-621">
          <mxGeometry x="712" width="590" height="120" as="geometry" />
        </mxCell>
        <mxCell id="Oz8bWutERCQ0BrFYmVm1-620" value="" style="group" vertex="1" connectable="0" parent="Oz8bWutERCQ0BrFYmVm1-621">
          <mxGeometry y="150" width="1970" height="1090" as="geometry" />
        </mxCell>
        <mxCell id="Oz8bWutERCQ0BrFYmVm1-618" value="" style="rounded=1;whiteSpace=wrap;html=1;" vertex="1" parent="Oz8bWutERCQ0BrFYmVm1-620">
          <mxGeometry width="1970" height="1090" as="geometry" />
        </mxCell>
        <mxCell id="Oz8bWutERCQ0BrFYmVm1-2" value="" style="edgeStyle=orthogonalEdgeStyle;rounded=0;orthogonalLoop=1;jettySize=auto;html=1;" edge="1" parent="Oz8bWutERCQ0BrFYmVm1-620" source="Oz8bWutERCQ0BrFYmVm1-0">
          <mxGeometry relative="1" as="geometry">
            <mxPoint x="987" y="230" as="targetPoint" />
          </mxGeometry>
        </mxCell>
        <mxCell id="Oz8bWutERCQ0BrFYmVm1-0" value="Enter site" style="rounded=1;whiteSpace=wrap;html=1;" vertex="1" parent="Oz8bWutERCQ0BrFYmVm1-620">
          <mxGeometry x="927" y="90" width="120" height="60" as="geometry" />
        </mxCell>
        <mxCell id="Oz8bWutERCQ0BrFYmVm1-6" value="" style="edgeStyle=orthogonalEdgeStyle;rounded=0;orthogonalLoop=1;jettySize=auto;html=1;" edge="1" parent="Oz8bWutERCQ0BrFYmVm1-620" source="Oz8bWutERCQ0BrFYmVm1-4">
          <mxGeometry relative="1" as="geometry">
            <mxPoint x="1173" y="275" as="targetPoint" />
          </mxGeometry>
        </mxCell>
        <mxCell id="Oz8bWutERCQ0BrFYmVm1-4" value="Does user have account" style="rhombus;whiteSpace=wrap;html=1;" vertex="1" parent="Oz8bWutERCQ0BrFYmVm1-620">
          <mxGeometry x="920" y="230" width="134" height="90" as="geometry" />
        </mxCell>
        <mxCell id="Oz8bWutERCQ0BrFYmVm1-7" value="No" style="text;html=1;align=center;verticalAlign=middle;resizable=0;points=[];autosize=1;strokeColor=none;fillColor=none;" vertex="1" parent="Oz8bWutERCQ0BrFYmVm1-620">
          <mxGeometry x="1083" y="248" width="40" height="30" as="geometry" />
        </mxCell>
        <mxCell id="Oz8bWutERCQ0BrFYmVm1-8" value="Create Account" style="rounded=1;whiteSpace=wrap;html=1;" vertex="1" parent="Oz8bWutERCQ0BrFYmVm1-620">
          <mxGeometry x="1173" y="248" width="120" height="60" as="geometry" />
        </mxCell>
        <mxCell id="Oz8bWutERCQ0BrFYmVm1-9" value="Log-in" style="rounded=0;whiteSpace=wrap;html=1;" vertex="1" parent="Oz8bWutERCQ0BrFYmVm1-620">
          <mxGeometry x="927" y="360" width="120" height="60" as="geometry" />
        </mxCell>
        <mxCell id="Oz8bWutERCQ0BrFYmVm1-10" value="" style="edgeStyle=orthogonalEdgeStyle;rounded=0;orthogonalLoop=1;jettySize=auto;html=1;" edge="1" parent="Oz8bWutERCQ0BrFYmVm1-620" source="Oz8bWutERCQ0BrFYmVm1-4" target="Oz8bWutERCQ0BrFYmVm1-9">
          <mxGeometry relative="1" as="geometry" />
        </mxCell>
        <mxCell id="Oz8bWutERCQ0BrFYmVm1-616" style="edgeStyle=orthogonalEdgeStyle;rounded=0;orthogonalLoop=1;jettySize=auto;html=1;entryX=1;entryY=0.5;entryDx=0;entryDy=0;" edge="1" parent="Oz8bWutERCQ0BrFYmVm1-620" source="Oz8bWutERCQ0BrFYmVm1-8" target="Oz8bWutERCQ0BrFYmVm1-9">
          <mxGeometry relative="1" as="geometry">
            <Array as="points">
              <mxPoint x="1233" y="390" />
            </Array>
          </mxGeometry>
        </mxCell>
        <mxCell id="Oz8bWutERCQ0BrFYmVm1-11" value="&lt;div&gt;Yes&lt;/div&gt;" style="text;html=1;align=center;verticalAlign=middle;resizable=0;points=[];autosize=1;strokeColor=none;fillColor=none;" vertex="1" parent="Oz8bWutERCQ0BrFYmVm1-620">
          <mxGeometry x="987" y="320" width="40" height="30" as="geometry" />
        </mxCell>
        <mxCell id="Oz8bWutERCQ0BrFYmVm1-12" value="Is admin" style="rhombus;whiteSpace=wrap;html=1;" vertex="1" parent="Oz8bWutERCQ0BrFYmVm1-620">
          <mxGeometry x="947" y="600" width="80" height="80" as="geometry" />
        </mxCell>
        <mxCell id="Oz8bWutERCQ0BrFYmVm1-16" value="&lt;div&gt;Select User admin&amp;nbsp;&lt;/div&gt;&lt;div&gt;or&amp;nbsp;&lt;/div&gt;&lt;div&gt;system admin&lt;/div&gt;settings" style="rhombus;whiteSpace=wrap;html=1;" vertex="1" parent="Oz8bWutERCQ0BrFYmVm1-620">
          <mxGeometry x="1343" y="669.88" width="171" height="148.75" as="geometry" />
        </mxCell>
        <mxCell id="Oz8bWutERCQ0BrFYmVm1-19" value="Change Reactions or Interests" style="rhombus;whiteSpace=wrap;html=1;" vertex="1" parent="Oz8bWutERCQ0BrFYmVm1-620">
          <mxGeometry x="1579" y="698" width="92.5" height="92.5" as="geometry" />
        </mxCell>
        <mxCell id="Oz8bWutERCQ0BrFYmVm1-20" value="" style="edgeStyle=orthogonalEdgeStyle;rounded=0;orthogonalLoop=1;jettySize=auto;html=1;" edge="1" parent="Oz8bWutERCQ0BrFYmVm1-620" source="Oz8bWutERCQ0BrFYmVm1-16" target="Oz8bWutERCQ0BrFYmVm1-19">
          <mxGeometry relative="1" as="geometry" />
        </mxCell>
        <mxCell id="Oz8bWutERCQ0BrFYmVm1-134" value="&lt;div&gt;Admin&lt;/div&gt;" style="text;html=1;align=center;verticalAlign=middle;resizable=0;points=[];autosize=1;strokeColor=none;fillColor=none;" vertex="1" parent="Oz8bWutERCQ0BrFYmVm1-620">
          <mxGeometry x="1027" y="610" width="60" height="30" as="geometry" />
        </mxCell>
        <mxCell id="Oz8bWutERCQ0BrFYmVm1-135" value="Use Admin settings" style="rhombus;whiteSpace=wrap;html=1;" vertex="1" parent="Oz8bWutERCQ0BrFYmVm1-620">
          <mxGeometry x="1083" y="600" width="80" height="80" as="geometry" />
        </mxCell>
        <mxCell id="Oz8bWutERCQ0BrFYmVm1-15" value="" style="edgeStyle=orthogonalEdgeStyle;rounded=0;orthogonalLoop=1;jettySize=auto;html=1;entryX=0;entryY=0.5;entryDx=0;entryDy=0;" edge="1" parent="Oz8bWutERCQ0BrFYmVm1-620" source="Oz8bWutERCQ0BrFYmVm1-12" target="Oz8bWutERCQ0BrFYmVm1-135">
          <mxGeometry relative="1" as="geometry">
            <mxPoint x="1173" y="640" as="targetPoint" />
          </mxGeometry>
        </mxCell>
        <mxCell id="Oz8bWutERCQ0BrFYmVm1-17" value="" style="edgeStyle=orthogonalEdgeStyle;rounded=0;orthogonalLoop=1;jettySize=auto;html=1;exitX=1;exitY=0.5;exitDx=0;exitDy=0;entryX=0.5;entryY=0;entryDx=0;entryDy=0;" edge="1" parent="Oz8bWutERCQ0BrFYmVm1-620" source="Oz8bWutERCQ0BrFYmVm1-135" target="Oz8bWutERCQ0BrFYmVm1-16">
          <mxGeometry relative="1" as="geometry">
            <mxPoint x="1186" y="640" as="sourcePoint" />
            <Array as="points">
              <mxPoint x="1429" y="640" />
            </Array>
          </mxGeometry>
        </mxCell>
        <mxCell id="Oz8bWutERCQ0BrFYmVm1-140" style="edgeStyle=orthogonalEdgeStyle;rounded=0;orthogonalLoop=1;jettySize=auto;html=1;entryX=0.5;entryY=0;entryDx=0;entryDy=0;" edge="1" parent="Oz8bWutERCQ0BrFYmVm1-620" source="Oz8bWutERCQ0BrFYmVm1-137" target="Oz8bWutERCQ0BrFYmVm1-12">
          <mxGeometry relative="1" as="geometry" />
        </mxCell>
        <mxCell id="Oz8bWutERCQ0BrFYmVm1-137" value="Show home page" style="rounded=0;whiteSpace=wrap;html=1;" vertex="1" parent="Oz8bWutERCQ0BrFYmVm1-620">
          <mxGeometry x="927" y="480" width="120" height="60" as="geometry" />
        </mxCell>
        <mxCell id="Oz8bWutERCQ0BrFYmVm1-138" value="" style="edgeStyle=orthogonalEdgeStyle;rounded=0;orthogonalLoop=1;jettySize=auto;html=1;" edge="1" parent="Oz8bWutERCQ0BrFYmVm1-620" source="Oz8bWutERCQ0BrFYmVm1-9" target="Oz8bWutERCQ0BrFYmVm1-137">
          <mxGeometry relative="1" as="geometry" />
        </mxCell>
        <mxCell id="Oz8bWutERCQ0BrFYmVm1-144" value="Stay on Home page " style="rhombus;whiteSpace=wrap;html=1;" vertex="1" parent="Oz8bWutERCQ0BrFYmVm1-620">
          <mxGeometry x="750" y="580" width="120" height="120" as="geometry" />
        </mxCell>
        <mxCell id="Oz8bWutERCQ0BrFYmVm1-142" value="" style="edgeStyle=orthogonalEdgeStyle;rounded=0;orthogonalLoop=1;jettySize=auto;html=1;entryX=1;entryY=0.5;entryDx=0;entryDy=0;" edge="1" parent="Oz8bWutERCQ0BrFYmVm1-620" source="Oz8bWutERCQ0BrFYmVm1-12" target="Oz8bWutERCQ0BrFYmVm1-144">
          <mxGeometry relative="1" as="geometry">
            <mxPoint x="870" y="640" as="targetPoint" />
          </mxGeometry>
        </mxCell>
        <mxCell id="Oz8bWutERCQ0BrFYmVm1-143" style="edgeStyle=orthogonalEdgeStyle;rounded=0;orthogonalLoop=1;jettySize=auto;html=1;exitX=0.5;exitY=1;exitDx=0;exitDy=0;entryX=1;entryY=0.5;entryDx=0;entryDy=0;" edge="1" parent="Oz8bWutERCQ0BrFYmVm1-620" source="Oz8bWutERCQ0BrFYmVm1-135" target="Oz8bWutERCQ0BrFYmVm1-144">
          <mxGeometry relative="1" as="geometry">
            <mxPoint x="920" y="640" as="targetPoint" />
            <Array as="points">
              <mxPoint x="1123" y="720" />
              <mxPoint x="920" y="720" />
              <mxPoint x="920" y="640" />
            </Array>
          </mxGeometry>
        </mxCell>
        <mxCell id="Oz8bWutERCQ0BrFYmVm1-164" value="&lt;div&gt;Switch to Profile&lt;/div&gt;&lt;div&gt;page&lt;br&gt;&lt;/div&gt;" style="rhombus;whiteSpace=wrap;html=1;" vertex="1" parent="Oz8bWutERCQ0BrFYmVm1-620">
          <mxGeometry x="440" y="580" width="120" height="120" as="geometry" />
        </mxCell>
        <mxCell id="Oz8bWutERCQ0BrFYmVm1-165" value="" style="edgeStyle=orthogonalEdgeStyle;rounded=0;orthogonalLoop=1;jettySize=auto;html=1;" edge="1" parent="Oz8bWutERCQ0BrFYmVm1-620" source="Oz8bWutERCQ0BrFYmVm1-144" target="Oz8bWutERCQ0BrFYmVm1-164">
          <mxGeometry relative="1" as="geometry" />
        </mxCell>
        <mxCell id="Oz8bWutERCQ0BrFYmVm1-166" value="&lt;div&gt;Switch to side bar &lt;br&gt;&lt;/div&gt;&lt;div&gt;pagers&lt;br&gt;&lt;/div&gt;" style="rhombus;whiteSpace=wrap;html=1;" vertex="1" parent="Oz8bWutERCQ0BrFYmVm1-620">
          <mxGeometry x="220" y="575" width="140" height="130" as="geometry" />
        </mxCell>
        <mxCell id="Oz8bWutERCQ0BrFYmVm1-167" value="" style="edgeStyle=orthogonalEdgeStyle;rounded=0;orthogonalLoop=1;jettySize=auto;html=1;" edge="1" parent="Oz8bWutERCQ0BrFYmVm1-620" source="Oz8bWutERCQ0BrFYmVm1-164" target="Oz8bWutERCQ0BrFYmVm1-166">
          <mxGeometry relative="1" as="geometry" />
        </mxCell>
        <mxCell id="Oz8bWutERCQ0BrFYmVm1-399" style="edgeStyle=orthogonalEdgeStyle;rounded=0;orthogonalLoop=1;jettySize=auto;html=1;entryX=1;entryY=0.5;entryDx=0;entryDy=0;exitX=0.5;exitY=0;exitDx=0;exitDy=0;" edge="1" parent="Oz8bWutERCQ0BrFYmVm1-620" source="Oz8bWutERCQ0BrFYmVm1-297" target="Oz8bWutERCQ0BrFYmVm1-135">
          <mxGeometry relative="1" as="geometry">
            <mxPoint x="1243" y="638" as="targetPoint" />
            <Array as="points">
              <mxPoint x="1243" y="640" />
            </Array>
          </mxGeometry>
        </mxCell>
        <mxCell id="Oz8bWutERCQ0BrFYmVm1-297" value="User Admin settings" style="rounded=1;whiteSpace=wrap;html=1;" vertex="1" parent="Oz8bWutERCQ0BrFYmVm1-620">
          <mxGeometry x="1183" y="714.2499999999998" width="120" height="60" as="geometry" />
        </mxCell>
        <mxCell id="Oz8bWutERCQ0BrFYmVm1-298" style="edgeStyle=orthogonalEdgeStyle;rounded=0;orthogonalLoop=1;jettySize=auto;html=1;entryX=1;entryY=0.5;entryDx=0;entryDy=0;" edge="1" parent="Oz8bWutERCQ0BrFYmVm1-620" source="Oz8bWutERCQ0BrFYmVm1-16" target="Oz8bWutERCQ0BrFYmVm1-297">
          <mxGeometry relative="1" as="geometry" />
        </mxCell>
        <mxCell id="Oz8bWutERCQ0BrFYmVm1-401" style="edgeStyle=orthogonalEdgeStyle;rounded=0;orthogonalLoop=1;jettySize=auto;html=1;entryX=1;entryY=0.5;entryDx=0;entryDy=0;" edge="1" parent="Oz8bWutERCQ0BrFYmVm1-620" source="Oz8bWutERCQ0BrFYmVm1-341" target="Oz8bWutERCQ0BrFYmVm1-135">
          <mxGeometry relative="1" as="geometry">
            <mxPoint x="1243" y="638" as="targetPoint" />
            <Array as="points">
              <mxPoint x="1813" y="958" />
              <mxPoint x="1163" y="958" />
              <mxPoint x="1163" y="678" />
              <mxPoint x="1243" y="678" />
              <mxPoint x="1243" y="640" />
            </Array>
          </mxGeometry>
        </mxCell>
        <mxCell id="Oz8bWutERCQ0BrFYmVm1-341" value="Reactions settings" style="rounded=1;whiteSpace=wrap;html=1;" vertex="1" parent="Oz8bWutERCQ0BrFYmVm1-620">
          <mxGeometry x="1753" y="714.25" width="120" height="60" as="geometry" />
        </mxCell>
        <mxCell id="Oz8bWutERCQ0BrFYmVm1-345" style="edgeStyle=orthogonalEdgeStyle;rounded=0;orthogonalLoop=1;jettySize=auto;html=1;entryX=0;entryY=0.5;entryDx=0;entryDy=0;" edge="1" parent="Oz8bWutERCQ0BrFYmVm1-620" source="Oz8bWutERCQ0BrFYmVm1-19" target="Oz8bWutERCQ0BrFYmVm1-341">
          <mxGeometry relative="1" as="geometry" />
        </mxCell>
        <mxCell id="Oz8bWutERCQ0BrFYmVm1-400" style="edgeStyle=orthogonalEdgeStyle;rounded=0;orthogonalLoop=1;jettySize=auto;html=1;entryX=1;entryY=0.5;entryDx=0;entryDy=0;" edge="1" parent="Oz8bWutERCQ0BrFYmVm1-620" source="Oz8bWutERCQ0BrFYmVm1-397" target="Oz8bWutERCQ0BrFYmVm1-135">
          <mxGeometry relative="1" as="geometry">
            <mxPoint x="1243" y="638" as="targetPoint" />
            <Array as="points">
              <mxPoint x="1163" y="889" />
              <mxPoint x="1163" y="678" />
              <mxPoint x="1243" y="678" />
              <mxPoint x="1243" y="640" />
            </Array>
          </mxGeometry>
        </mxCell>
        <mxCell id="Oz8bWutERCQ0BrFYmVm1-397" value="Interest settings" style="rounded=1;whiteSpace=wrap;html=1;" vertex="1" parent="Oz8bWutERCQ0BrFYmVm1-620">
          <mxGeometry x="1565.25" y="859.25" width="120" height="60" as="geometry" />
        </mxCell>
        <mxCell id="Oz8bWutERCQ0BrFYmVm1-398" value="" style="edgeStyle=orthogonalEdgeStyle;rounded=0;orthogonalLoop=1;jettySize=auto;html=1;" edge="1" parent="Oz8bWutERCQ0BrFYmVm1-620" source="Oz8bWutERCQ0BrFYmVm1-19" target="Oz8bWutERCQ0BrFYmVm1-397">
          <mxGeometry relative="1" as="geometry" />
        </mxCell>
        <mxCell id="Oz8bWutERCQ0BrFYmVm1-477" style="edgeStyle=orthogonalEdgeStyle;rounded=0;orthogonalLoop=1;jettySize=auto;html=1;entryX=1;entryY=0.5;entryDx=0;entryDy=0;" edge="1" parent="Oz8bWutERCQ0BrFYmVm1-620" source="Oz8bWutERCQ0BrFYmVm1-475" target="Oz8bWutERCQ0BrFYmVm1-166">
          <mxGeometry relative="1" as="geometry">
            <mxPoint x="399.99999999999955" y="640" as="targetPoint" />
          </mxGeometry>
        </mxCell>
        <mxCell id="Oz8bWutERCQ0BrFYmVm1-480" style="edgeStyle=orthogonalEdgeStyle;rounded=0;orthogonalLoop=1;jettySize=auto;html=1;entryX=0;entryY=0.5;entryDx=0;entryDy=0;" edge="1" parent="Oz8bWutERCQ0BrFYmVm1-620" source="Oz8bWutERCQ0BrFYmVm1-475" target="Oz8bWutERCQ0BrFYmVm1-137">
          <mxGeometry relative="1" as="geometry" />
        </mxCell>
        <mxCell id="Oz8bWutERCQ0BrFYmVm1-475" value="Profile page" style="rounded=1;whiteSpace=wrap;html=1;" vertex="1" parent="Oz8bWutERCQ0BrFYmVm1-620">
          <mxGeometry x="440" y="480" width="120" height="60" as="geometry" />
        </mxCell>
        <mxCell id="Oz8bWutERCQ0BrFYmVm1-476" value="" style="edgeStyle=orthogonalEdgeStyle;rounded=0;orthogonalLoop=1;jettySize=auto;html=1;" edge="1" parent="Oz8bWutERCQ0BrFYmVm1-620" source="Oz8bWutERCQ0BrFYmVm1-164" target="Oz8bWutERCQ0BrFYmVm1-475">
          <mxGeometry relative="1" as="geometry" />
        </mxCell>
        <mxCell id="Oz8bWutERCQ0BrFYmVm1-517" style="edgeStyle=orthogonalEdgeStyle;rounded=0;orthogonalLoop=1;jettySize=auto;html=1;entryX=1;entryY=0.5;entryDx=0;entryDy=0;" edge="1" parent="Oz8bWutERCQ0BrFYmVm1-620" source="Oz8bWutERCQ0BrFYmVm1-515" target="Oz8bWutERCQ0BrFYmVm1-164">
          <mxGeometry relative="1" as="geometry">
            <mxPoint x="620" y="640" as="targetPoint" />
          </mxGeometry>
        </mxCell>
        <mxCell id="Oz8bWutERCQ0BrFYmVm1-515" value="&lt;div&gt;Home page&lt;/div&gt;&lt;div&gt;logic&lt;br&gt;&lt;/div&gt;" style="rounded=1;whiteSpace=wrap;html=1;" vertex="1" parent="Oz8bWutERCQ0BrFYmVm1-620">
          <mxGeometry x="750" y="750" width="120" height="60" as="geometry" />
        </mxCell>
        <mxCell id="Oz8bWutERCQ0BrFYmVm1-516" value="" style="edgeStyle=orthogonalEdgeStyle;rounded=0;orthogonalLoop=1;jettySize=auto;html=1;" edge="1" parent="Oz8bWutERCQ0BrFYmVm1-620" source="Oz8bWutERCQ0BrFYmVm1-144" target="Oz8bWutERCQ0BrFYmVm1-515">
          <mxGeometry relative="1" as="geometry" />
        </mxCell>
        <mxCell id="Oz8bWutERCQ0BrFYmVm1-562" style="edgeStyle=orthogonalEdgeStyle;rounded=0;orthogonalLoop=1;jettySize=auto;html=1;exitX=0.5;exitY=1;exitDx=0;exitDy=0;entryX=1;entryY=0.5;entryDx=0;entryDy=0;" edge="1" parent="Oz8bWutERCQ0BrFYmVm1-620" source="Oz8bWutERCQ0BrFYmVm1-560" target="Oz8bWutERCQ0BrFYmVm1-144">
          <mxGeometry relative="1" as="geometry">
            <mxPoint x="920" y="640" as="targetPoint" />
            <Array as="points">
              <mxPoint x="290" y="840" />
              <mxPoint x="920" y="840" />
              <mxPoint x="920" y="640" />
            </Array>
          </mxGeometry>
        </mxCell>
        <mxCell id="Oz8bWutERCQ0BrFYmVm1-560" value="Chat page" style="rounded=1;whiteSpace=wrap;html=1;" vertex="1" parent="Oz8bWutERCQ0BrFYmVm1-620">
          <mxGeometry x="230" y="750" width="120" height="60" as="geometry" />
        </mxCell>
        <mxCell id="Oz8bWutERCQ0BrFYmVm1-561" value="" style="edgeStyle=orthogonalEdgeStyle;rounded=0;orthogonalLoop=1;jettySize=auto;html=1;" edge="1" parent="Oz8bWutERCQ0BrFYmVm1-620" source="Oz8bWutERCQ0BrFYmVm1-166" target="Oz8bWutERCQ0BrFYmVm1-560">
          <mxGeometry relative="1" as="geometry" />
        </mxCell>
        <mxCell id="Oz8bWutERCQ0BrFYmVm1-591" style="edgeStyle=orthogonalEdgeStyle;rounded=0;orthogonalLoop=1;jettySize=auto;html=1;entryX=0;entryY=0.5;entryDx=0;entryDy=0;" edge="1" parent="Oz8bWutERCQ0BrFYmVm1-620" source="Oz8bWutERCQ0BrFYmVm1-588" target="Oz8bWutERCQ0BrFYmVm1-9">
          <mxGeometry relative="1" as="geometry">
            <Array as="points">
              <mxPoint x="90" y="390" />
            </Array>
          </mxGeometry>
        </mxCell>
        <mxCell id="Oz8bWutERCQ0BrFYmVm1-617" style="edgeStyle=orthogonalEdgeStyle;rounded=0;orthogonalLoop=1;jettySize=auto;html=1;entryX=0;entryY=0.5;entryDx=0;entryDy=0;" edge="1" parent="Oz8bWutERCQ0BrFYmVm1-620" source="Oz8bWutERCQ0BrFYmVm1-588" target="Oz8bWutERCQ0BrFYmVm1-137">
          <mxGeometry relative="1" as="geometry">
            <Array as="points">
              <mxPoint x="90" y="440" />
              <mxPoint x="710" y="440" />
              <mxPoint x="710" y="510" />
            </Array>
          </mxGeometry>
        </mxCell>
        <mxCell id="Oz8bWutERCQ0BrFYmVm1-588" value="Settings Page" style="rounded=1;whiteSpace=wrap;html=1;" vertex="1" parent="Oz8bWutERCQ0BrFYmVm1-620">
          <mxGeometry x="30" y="610" width="120" height="60" as="geometry" />
        </mxCell>
        <mxCell id="Oz8bWutERCQ0BrFYmVm1-589" value="" style="edgeStyle=orthogonalEdgeStyle;rounded=0;orthogonalLoop=1;jettySize=auto;html=1;" edge="1" parent="Oz8bWutERCQ0BrFYmVm1-620" source="Oz8bWutERCQ0BrFYmVm1-166" target="Oz8bWutERCQ0BrFYmVm1-588">
          <mxGeometry relative="1" as="geometry" />
        </mxCell>
        <mxCell id="Oz8bWutERCQ0BrFYmVm1-592" value="Normal user" style="text;html=1;align=center;verticalAlign=middle;resizable=0;points=[];autosize=1;strokeColor=none;fillColor=none;" vertex="1" parent="Oz8bWutERCQ0BrFYmVm1-620">
          <mxGeometry x="875" y="608" width="90" height="30" as="geometry" />
        </mxCell>
      </root>
    </mxGraphModel>
  </diagram>
</mxfile>
